<svg xmlns="http://www.w3.org/2000/svg" width="30.002" height="32.73" viewBox="0 0 30.002 32.73">
  <g id="Group_1358" data-name="Group 1358" transform="translate(-1590.742 -219.844)">
    <g id="portable-document-format" transform="translate(1590.742 219.844)">
      <path id="Path_658" data-name="Path 658" d="M20.433,28.638H4.75A3.753,3.753,0,0,1,1,24.888V3.75A3.753,3.753,0,0,1,4.75,0H20.433a3.753,3.753,0,0,1,3.75,3.75V24.888A3.753,3.753,0,0,1,20.433,28.638Z" transform="translate(-1)" fill="#1976d2"/>
      <path id="Path_659" data-name="Path 659" d="M13.274,0H4.75A3.753,3.753,0,0,0,1,3.75V24.888a3.753,3.753,0,0,0,3.75,3.75h8.523Z" transform="translate(-1)" fill="#1667b7"/>
      <path id="Path_660" data-name="Path 660" d="M25.433,31.275H9.75A3.753,3.753,0,0,1,6,27.524V7.75A3.753,3.753,0,0,1,9.75,4H25.433a3.753,3.753,0,0,1,3.75,3.75V27.524A3.753,3.753,0,0,1,25.433,31.275Z" transform="translate(0.819 1.455)" fill="#eceff1"/>
      <g id="Group_981" data-name="Group 981" transform="translate(12.274 10.91)">
        <path id="Path_661" data-name="Path 661" d="M21.251,17.546H11.023a1.023,1.023,0,0,1,0-2.046H21.251a1.023,1.023,0,0,1,0,2.046Z" transform="translate(-10 -5.272)" fill="#607d8b"/>
        <path id="Path_662" data-name="Path 662" d="M21.251,21.546H11.023a1.023,1.023,0,0,1,0-2.046H21.251a1.023,1.023,0,0,1,0,2.046Z" transform="translate(-10 -3.817)" fill="#607d8b"/>
        <path id="Path_663" data-name="Path 663" d="M21.251,14.046H11.023a1.023,1.023,0,0,1,0-2.046H21.251a1.023,1.023,0,0,1,0,2.046Z" transform="translate(-10 -6.545)" fill="#607d8b"/>
        <path id="Path_664" data-name="Path 664" d="M21.251,10.046H11.023a1.023,1.023,0,0,1,0-2.046H21.251a1.023,1.023,0,0,1,0,2.046Z" transform="translate(-10 -8)" fill="#607d8b"/>
      </g>
      <path id="Path_665" data-name="Path 665" d="M17.592,4H9.75A3.753,3.753,0,0,0,6,7.75V27.524a3.753,3.753,0,0,0,3.75,3.75h7.841V27.183H12.478a1.023,1.023,0,0,1,0-2.046h5.114V21.729H12.478a1.023,1.023,0,1,1,0-2.046h5.114V16.955H12.478a1.023,1.023,0,0,1,0-2.046h5.114V11.5H12.478a1.023,1.023,0,1,1,0-2.046h5.114Z" transform="translate(0.819 1.455)" fill="#cdd0d2"/>
      <path id="Path_666" data-name="Path 666" d="M16.137,15.5H11.023a1.023,1.023,0,0,0,0,2.046h5.114Z" transform="translate(2.274 5.638)" fill="#546d79"/>
      <path id="Path_667" data-name="Path 667" d="M16.137,19.5H11.023a1.023,1.023,0,0,0,0,2.046h5.114Z" transform="translate(2.274 7.093)" fill="#546d79"/>
      <path id="Path_668" data-name="Path 668" d="M16.137,12H11.023a1.023,1.023,0,0,0,0,2.046h5.114Z" transform="translate(2.274 4.365)" fill="#546d79"/>
      <path id="Path_669" data-name="Path 669" d="M16.137,8H11.023a1.023,1.023,0,0,0,0,2.046h5.114Z" transform="translate(2.274 2.91)" fill="#546d79"/>
    </g>
  </g>
</svg>
