<svg xmlns="http://www.w3.org/2000/svg" width="31.8" height="33.332" viewBox="0 0 31.8 33.332">
  <g id="Group_1357" data-name="Group 1357" transform="translate(-1806 -160)">
    <path id="Path_98" data-name="Path 98" d="M14.932,2.65H13.474a3.651,3.651,0,0,0-7.023,0H4.994A1,1,0,0,0,4,3.644V5.631A2.33,2.33,0,0,0,6.319,7.95h7.288a2.33,2.33,0,0,0,2.319-2.319V3.644A1,1,0,0,0,14.932,2.65Z" transform="translate(1807.3 160)"/>
    <path id="Path_99" data-name="Path 99" d="M18.882,3h-.331V4.656A3.642,3.642,0,0,1,14.907,8.3H7.619A3.642,3.642,0,0,1,3.975,4.656V3H3.644A3.642,3.642,0,0,0,0,6.644V23.207a3.642,3.642,0,0,0,3.644,3.644h9.779l.292-1.63a3.69,3.69,0,0,1,1.007-1.948l1.06-1.06H4.969a.994.994,0,0,1,0-1.988H17.557a.451.451,0,0,1,.186.027h.013l4.77-4.77V6.644A3.642,3.642,0,0,0,18.882,3ZM17.557,17.907H4.969a.994.994,0,1,1,0-1.988H17.557a.994.994,0,1,1,0,1.988Zm0-4.306H4.969a.994.994,0,1,1,0-1.988H17.557a.994.994,0,1,1,0,1.988Z" transform="translate(1806 162)"/>
    <path id="Path_100" data-name="Path 100" d="M12.771,28.006a.994.994,0,0,1-.978-1.167l.7-3.982a1,1,0,0,1,.276-.53l9.839-9.837a2.022,2.022,0,0,1,3.045-.235l1.639,1.639a2.32,2.32,0,0,1,0,3.28l-9.839,9.839a.979.979,0,0,1-.53.276l-3.982.7a.947.947,0,0,1-.172.016Zm3.982-1.7h.013Z" transform="translate(1809.828 165.325)"/>
  </g>
</svg>
