<svg xmlns="http://www.w3.org/2000/svg" width="38.393" height="30.281" viewBox="0 0 38.393 30.281">
  <path id="Path_678" data-name="Path 678" d="M102.1,85.57a16.1,16.1,0,0,1-4.525,1.206,7.707,7.707,0,0,0,3.465-4.232,15.969,15.969,0,0,1-5,1.856,7.979,7.979,0,0,0-5.749-2.412,7.761,7.761,0,0,0-7.875,7.642,7.42,7.42,0,0,0,.2,1.744,22.594,22.594,0,0,1-16.234-7.988,7.425,7.425,0,0,0-1.067,3.842,7.58,7.58,0,0,0,3.5,6.362,8.009,8.009,0,0,1-3.57-.958v.1a7.711,7.711,0,0,0,6.319,7.5,8.146,8.146,0,0,1-2.075.269,7.942,7.942,0,0,1-1.481-.137,7.856,7.856,0,0,0,7.36,5.309,16.1,16.1,0,0,1-9.784,3.273,16.561,16.561,0,0,1-1.881-.107,22.8,22.8,0,0,0,12.077,3.436A21.918,21.918,0,0,0,98.2,90.515l-.022-.99A15.72,15.72,0,0,0,102.1,85.57Z" transform="translate(-63.708 -81.988)" fill="#fff"/>
</svg>
