<svg xmlns="http://www.w3.org/2000/svg" width="33.596" height="33.596" viewBox="0 0 33.596 33.596">
  <g id="dashboard" transform="translate(0 0)">
    <path id="Path_92" data-name="Path 92" d="M12.948,0H2.45A2.452,2.452,0,0,0,0,2.45v6.3A2.452,2.452,0,0,0,2.45,11.2h10.5a2.452,2.452,0,0,0,2.45-2.45V2.45A2.452,2.452,0,0,0,12.948,0Zm0,0" transform="translate(0 0)" fill="#fff"/>
    <path id="Path_93" data-name="Path 93" d="M12.948,213.332H2.45A2.452,2.452,0,0,0,0,215.782v14.7a2.452,2.452,0,0,0,2.45,2.45h10.5a2.452,2.452,0,0,0,2.45-2.45v-14.7A2.452,2.452,0,0,0,12.948,213.332Zm0,0" transform="translate(0 -199.334)" fill="#fff"/>
    <path id="Path_94" data-name="Path 94" d="M290.281,341.332h-10.5a2.452,2.452,0,0,0-2.45,2.45v6.3a2.452,2.452,0,0,0,2.45,2.45h10.5a2.452,2.452,0,0,0,2.45-2.45v-6.3A2.452,2.452,0,0,0,290.281,341.332Zm0,0" transform="translate(-259.134 -318.935)" fill="#fff"/>
    <path id="Path_95" data-name="Path 95" d="M290.281,0h-10.5a2.452,2.452,0,0,0-2.45,2.45v14.7a2.452,2.452,0,0,0,2.45,2.45h10.5a2.452,2.452,0,0,0,2.45-2.45V2.45A2.452,2.452,0,0,0,290.281,0Zm0,0" transform="translate(-259.134 0)" fill="#fff"/>
  </g>
</svg>
