<svg xmlns="http://www.w3.org/2000/svg" width="36.265" height="48.767" viewBox="0 0 36.265 48.767">
  <g id="XMLID_2_" transform="translate(36.265) rotate(90)">
    <path id="XMLID_4_" d="M7.568,11.083H33.25a2.217,2.217,0,0,0,0-4.433H7.568l2.866-2.866A2.217,2.217,0,0,0,7.3.649L.65,7.3C.6,7.35.55,7.4.5,7.46c-.011.014-.021.029-.032.043-.034.043-.067.086-.1.132-.009.013-.016.027-.025.041-.03.048-.06.1-.087.146l-.015.03C.22,7.905.193,7.96.17,8.017c0,.007-.005.014-.008.021-.024.06-.046.12-.065.182,0,.008,0,.016-.006.024-.018.061-.034.123-.047.186,0,.019-.005.038-.009.057-.009.052-.018.1-.023.158a2.186,2.186,0,0,0,0,.443c.005.054.015.107.024.16,0,.018,0,.037.009.055.013.064.029.126.047.188,0,.007,0,.015.006.022.019.063.041.124.066.184,0,.007,0,.013.007.02.024.057.051.112.079.167l.014.029c.027.05.057.1.088.147.008.013.015.027.024.039.031.046.064.089.1.132.011.014.02.029.031.042.046.056.095.11.146.161l6.65,6.65a2.217,2.217,0,1,0,3.135-3.135Z" transform="translate(0 9.266)" fill="#b4f0ff"/>
    <path id="XMLID_5_" d="M15.436,0A18.119,18.119,0,0,0,.377,8.029,2.217,2.217,0,0,0,4.057,10.5a13.7,13.7,0,1,1,.018,15.288A2.217,2.217,0,0,0,.4,28.272,18.133,18.133,0,1,0,15.436,0Z" transform="translate(15.198)" fill="#b4f0ff"/>
  </g>
</svg>
