<svg xmlns="http://www.w3.org/2000/svg" width="34.488" height="38.529" viewBox="0 0 34.488 38.529">
  <g id="user_2_" data-name="user (2)" transform="translate(0)">
    <g id="Group_189" data-name="Group 189" transform="translate(7.243)">
      <g id="Group_188" data-name="Group 188">
        <path id="Path_90" data-name="Path 90" d="M120.794,0a10,10,0,1,0,10,10A10.03,10.03,0,0,0,120.794,0Z" transform="translate(-110.791)" fill="#b4f0ff"/>
      </g>
    </g>
    <g id="Group_191" data-name="Group 191" transform="translate(0 20.723)">
      <g id="Group_190" data-name="Group 190" transform="translate(0)">
        <path id="Path_91" data-name="Path 91" d="M58.579,255.119a9.325,9.325,0,0,0-1-1.835,12.434,12.434,0,0,0-8.606-5.417,1.842,1.842,0,0,0-1.267.306,10.663,10.663,0,0,1-12.581,0,1.639,1.639,0,0,0-1.267-.306,12.344,12.344,0,0,0-8.606,5.417,10.752,10.752,0,0,0-1,1.835.929.929,0,0,0,.044.83,17.424,17.424,0,0,0,1.179,1.747,16.6,16.6,0,0,0,2.009,2.272,26.191,26.191,0,0,0,2.009,1.747,19.921,19.921,0,0,0,23.764,0,19.211,19.211,0,0,0,2.009-1.747,20.171,20.171,0,0,0,2.009-2.272,15.311,15.311,0,0,0,1.179-1.747A.745.745,0,0,0,58.579,255.119Z" transform="translate(-24.165 -247.841)" fill="#b4f0ff"/>
      </g>
    </g>
  </g>
</svg>
