<svg id="Group_222" data-name="Group 222" xmlns="http://www.w3.org/2000/svg" width="38.273" height="46.68" viewBox="0 0 38.273 46.68">
  <path id="XMLID_3088_" d="M293.293,315a8.292,8.292,0,1,0,8.293,8.293A8.293,8.293,0,0,0,293.293,315Z" transform="translate(-263.312 -288.209)" fill="#b4f0ff"/>
  <path id="XMLID_3173_" d="M49.137,35.084A10.854,10.854,0,0,1,60.618,24.259V0H30V43.376H53A10.824,10.824,0,0,1,49.137,35.084ZM37.655,25.515H35.1V22.964h2.552Zm0-5.1H35.1V17.861h2.552Zm0-5.1H35.1V12.758h2.552Zm0-5.1H35.1V7.655h2.552Zm2.552-2.552H55.515v2.552H40.206Zm0,5.1H55.515v2.552H40.206Zm0,5.1H55.515v2.552H40.206Zm7.655,7.655H40.206V22.964h7.655Z" transform="translate(-30)" fill="#b4f0ff"/>
  <text id="_" data-name="+" transform="translate(24.803 39.68)" fill="#00abd5" font-size="17" font-family="SourceSansPro-Black, Source Sans Pro" font-weight="800"><tspan x="0" y="0">+</tspan></text>
</svg>
