<svg xmlns="http://www.w3.org/2000/svg" width="42.43" height="57.058" viewBox="0 0 42.43 57.058">
  <g id="XMLID_2_" transform="translate(42.43) rotate(90)">
    <path id="XMLID_4_" d="M8.855,12.968H38.9a2.594,2.594,0,1,0,0-5.187H8.855l3.353-3.353A2.594,2.594,0,0,0,8.54.76L.76,8.54c-.06.06-.117.123-.171.188-.013.016-.024.033-.037.05-.04.05-.078.1-.114.154-.01.016-.019.032-.029.048-.036.056-.071.112-.1.17L.29,9.186C.257,9.249.226,9.313.2,9.38c0,.008-.006.017-.009.025-.028.07-.054.141-.076.213,0,.009,0,.019-.007.028-.021.071-.04.144-.055.217,0,.022-.006.045-.01.067-.011.061-.021.122-.027.185a2.558,2.558,0,0,0,0,.518c.006.063.017.125.028.187,0,.021.006.043.01.065.015.075.034.147.055.219,0,.008,0,.017.007.026.022.073.048.145.077.215,0,.008.005.016.009.023.028.067.059.132.092.2.006.011.011.023.016.034.032.059.067.116.1.172.01.015.018.031.028.046.036.053.075.1.114.155.013.016.024.033.037.049.054.066.111.128.171.188l7.78,7.78a2.594,2.594,0,0,0,3.668-3.668Z" transform="translate(0 10.841)" fill="#fff"/>
    <path id="XMLID_5_" d="M18.06,0A21.2,21.2,0,0,0,.441,9.394a2.594,2.594,0,0,0,4.305,2.893,16.028,16.028,0,1,1,.022,17.888,2.594,2.594,0,0,0-4.3,2.9A21.216,21.216,0,1,0,18.06,0Z" transform="translate(17.782)" fill="#fff"/>
  </g>
</svg>
