<svg id="user_2_" data-name="user (2)" xmlns="http://www.w3.org/2000/svg" width="40.352" height="45.079" viewBox="0 0 40.352 45.079">
  <g id="Group_189" data-name="Group 189" transform="translate(8.474)">
    <g id="Group_188" data-name="Group 188">
      <path id="Path_90" data-name="Path 90" d="M122.5,0a11.7,11.7,0,1,0,11.7,11.7A11.735,11.735,0,0,0,122.5,0Z" transform="translate(-110.791)" fill="#fff"/>
    </g>
  </g>
  <g id="Group_191" data-name="Group 191" transform="translate(0 24.245)">
    <g id="Group_190" data-name="Group 190" transform="translate(0)">
      <path id="Path_91" data-name="Path 91" d="M64.429,256.356a10.912,10.912,0,0,0-1.175-2.147,14.548,14.548,0,0,0-10.069-6.338,2.154,2.154,0,0,0-1.482.358,12.476,12.476,0,0,1-14.72,0,1.918,1.918,0,0,0-1.482-.358,14.443,14.443,0,0,0-10.069,6.338,12.582,12.582,0,0,0-1.175,2.147,1.087,1.087,0,0,0,.051.971,20.386,20.386,0,0,0,1.38,2.044,19.424,19.424,0,0,0,2.351,2.658,30.637,30.637,0,0,0,2.351,2.044,23.307,23.307,0,0,0,27.8,0,22.476,22.476,0,0,0,2.351-2.044,23.6,23.6,0,0,0,2.351-2.658,17.913,17.913,0,0,0,1.38-2.044A.872.872,0,0,0,64.429,256.356Z" transform="translate(-24.165 -247.841)" fill="#fff"/>
    </g>
  </g>
</svg>
