<svg xmlns="http://www.w3.org/2000/svg" width="44.779" height="53.755" viewBox="0 0 44.779 53.755">
  <g id="Group_1361" data-name="Group 1361" transform="translate(-18781.182 -1613.245)">
    <path id="XMLID_3088_" d="M294.7,315a9.7,9.7,0,1,0,9.7,9.7A9.7,9.7,0,0,0,294.7,315Z" transform="translate(18521.557 1329.59)" fill="#fff"/>
    <path id="XMLID_3173_" d="M52.39,41.048A12.7,12.7,0,0,1,65.824,28.383V0H30V50.75H56.912A12.665,12.665,0,0,1,52.39,41.048ZM38.956,29.853H35.971V26.868h2.985Zm0-5.971H35.971V20.9h2.985Zm0-5.971H35.971V14.927h2.985Zm0-5.971H35.971V8.956h2.985Zm2.985-2.985H59.853v2.985H41.941Zm0,5.971H59.853v2.985H41.941Zm0,5.971H59.853v2.985H41.941ZM50.9,29.853H41.941V26.868H50.9Z" transform="translate(18751.182 1613.245)" fill="#fff"/>
    <text id="_" data-name="+" transform="translate(18810 1659)" fill="#00c2f2" font-size="20" font-family="SourceSansPro-Black, Source Sans Pro" font-weight="800"><tspan x="0" y="0">+</tspan></text>
  </g>
</svg>
