<svg xmlns="http://www.w3.org/2000/svg" width="128.88" height="120.42" viewBox="0 0 128.88 120.42">
  <g id="Group_433" data-name="Group 433" transform="translate(-900.934 -370.853)">
    <path id="Path_493" data-name="Path 493" d="M157.035,145.805l-51.6-94.762a12.87,12.87,0,0,0-22.066,0l-51.6,94.762A12.883,12.883,0,0,0,42.8,165.22H146a12.883,12.883,0,0,0,11.033-19.414Z" transform="translate(870.972 326.053)" fill="#ffde33"/>
    <g id="Group_432" data-name="Group 432" transform="translate(958.421 405.195)">
      <path id="Path_494" data-name="Path 494" d="M232.953,391.105a6.953,6.953,0,1,1,6.953-6.953A6.973,6.973,0,0,1,232.953,391.105Z" transform="translate(-226 -321.58)" fill="#2e2d2a"/>
      <path id="Path_495" data-name="Path 495" d="M239.905,178.915a6.953,6.953,0,1,1-13.905,0V144.153a6.953,6.953,0,1,1,13.905,0Z" transform="translate(-226 -137.2)" fill="#2e2d2a"/>
    </g>
  </g>
</svg>
