<svg xmlns="http://www.w3.org/2000/svg" width="39.308" height="39.308" viewBox="0 0 39.308 39.308">
  <g id="dashboard" transform="translate(0 0)">
    <path id="Path_92" data-name="Path 92" d="M15.15,0H2.866A2.869,2.869,0,0,0,0,2.866v7.37A2.869,2.869,0,0,0,2.866,13.1H15.15a2.869,2.869,0,0,0,2.866-2.866V2.866A2.869,2.869,0,0,0,15.15,0Zm0,0" transform="translate(0 0)" fill="#b4f0ff"/>
    <path id="Path_93" data-name="Path 93" d="M15.15,213.332H2.866A2.869,2.869,0,0,0,0,216.2v17.2a2.869,2.869,0,0,0,2.866,2.866H15.15a2.869,2.869,0,0,0,2.866-2.866V216.2A2.869,2.869,0,0,0,15.15,213.332Zm0,0" transform="translate(0 -196.954)" fill="#b4f0ff"/>
    <path id="Path_94" data-name="Path 94" d="M292.482,341.332H280.2a2.869,2.869,0,0,0-2.866,2.866v7.37a2.869,2.869,0,0,0,2.866,2.866h12.284a2.869,2.869,0,0,0,2.866-2.866V344.2A2.869,2.869,0,0,0,292.482,341.332Zm0,0" transform="translate(-256.04 -315.127)" fill="#b4f0ff"/>
    <path id="Path_95" data-name="Path 95" d="M292.482,0H280.2a2.869,2.869,0,0,0-2.866,2.866v17.2A2.869,2.869,0,0,0,280.2,22.93h12.284a2.869,2.869,0,0,0,2.866-2.866V2.866A2.869,2.869,0,0,0,292.482,0Zm0,0" transform="translate(-256.04 0)" fill="#b4f0ff"/>
  </g>
</svg>
