<svg xmlns="http://www.w3.org/2000/svg" width="221.581" height="204.501" viewBox="0 0 221.581 204.501">
  <g id="Group_215" data-name="Group 215" transform="translate(-848.927 -437.499)">
    <g id="send" transform="translate(848.927 417.788)">
      <g id="Group_194" data-name="Group 194" transform="translate(0 82.706)">
        <path id="Path_110" data-name="Path 110" d="M10.674,306.615A10.676,10.676,0,0,1,0,295.936V175.788a10.676,10.676,0,0,1,10.674-10.679H210.907a10.676,10.676,0,0,1,10.674,10.679V295.936a10.676,10.676,0,0,1-10.674,10.679Z" transform="translate(0 -165.109)" fill="#fdbf00"/>
        <path id="Path_111" data-name="Path 111" d="M355.582,165.109H255.276V306.614H355.582a10.676,10.676,0,0,0,10.674-10.679V175.788A10.676,10.676,0,0,0,355.582,165.109Z" transform="translate(-144.675 -165.109)" fill="#ff9100"/>
        <g id="Group_190" data-name="Group 190" transform="translate(3.253 62.405)">
          <g id="Group_189" data-name="Group 189">
            <g id="Group_188" data-name="Group 188">
              <path id="Path_112" data-name="Path 112" d="M100.932,313.915,7.509,385.237a10.633,10.633,0,0,0,7.42,3.006H215.163a10.632,10.632,0,0,0,7.42-3.006L129.16,313.915a23.257,23.257,0,0,0-28.227,0Z" transform="translate(-7.509 -309.143)" fill="#ff9100"/>
            </g>
          </g>
        </g>
        <path id="Path_113" data-name="Path 113" d="M255.276,309.15v79.1H355.582a10.632,10.632,0,0,0,7.42-3.006l-93.423-71.323a23.222,23.222,0,0,0-14.3-4.768Z" transform="translate(-144.675 -246.742)" fill="#ff641a"/>
        <g id="Group_193" data-name="Group 193" transform="translate(3.253 0.001)">
          <g id="Group_192" data-name="Group 192">
            <g id="Group_191" data-name="Group 191">
              <path id="Path_114" data-name="Path 114" d="M129.16,239.439l93.423-71.323a10.633,10.633,0,0,0-7.42-3.006H14.929a10.631,10.631,0,0,0-7.42,3.006l93.424,71.323a23.257,23.257,0,0,0,28.227,0Z" transform="translate(-7.509 -165.11)" fill="#ffda2d"/>
            </g>
          </g>
        </g>
        <path id="Path_115" data-name="Path 115" d="M255.276,165.108v79.1a23.22,23.22,0,0,0,14.3-4.768L363,168.115a10.633,10.633,0,0,0-7.42-3.007H255.276Z" transform="translate(-144.675 -165.108)" fill="#fdbf00"/>
      </g>
      <g id="Group_195" data-name="Group 195" transform="translate(42.212 19.711)">
        <path id="Path_116" data-name="Path 116" d="M100.485,93.972h67.608a.738.738,0,0,1,.744.731v25.414a3.061,3.061,0,0,0,4.989,2.327l59.635-47.823a2.971,2.971,0,0,0,.029-4.632L173.2,20.417a3.062,3.062,0,0,0-5.018,2.3V46.389a.47.47,0,0,1-.474.466H100.667a3.03,3.03,0,0,0-3.056,2.991l-.183,41.11A3.03,3.03,0,0,0,100.485,93.972Z" transform="translate(-97.428 -19.711)" fill="#00aeee"/>
        <path id="Path_117" data-name="Path 117" d="M97.549,141.767l-.081,18.362a3.03,3.03,0,0,0,3.056,3.017h67.608a.738.738,0,0,1,.744.731v25.414a3.061,3.061,0,0,0,4.989,2.327L233.5,143.8a2.969,2.969,0,0,0,1.107-2.029Z" transform="translate(-97.451 -88.885)" fill="#0089ff"/>
      </g>
    </g>
  </g>
</svg>
