<svg xmlns="http://www.w3.org/2000/svg" width="624.284" height="612.213" viewBox="0 0 624.284 612.213">
  <g id="Group_214" data-name="Group 214" transform="translate(-233 -277.787)">
    <g id="Group_213" data-name="Group 213">
      <g id="Group_212" data-name="Group 212">
        <g id="Group_211" data-name="Group 211">
          <g id="Group_187" data-name="Group 187" transform="translate(87 23)">
            <g id="Background_Complete" transform="translate(146 254.787)">
              <g id="Group_47" data-name="Group 47">
                <g id="Group_13" data-name="Group 13" transform="translate(384.835 273.703)">
                  <g id="Group_7" data-name="Group 7">
                    <g id="Group_1" data-name="Group 1">
                      <path id="Path_1" data-name="Path 1" d="M542.48,359.955H303.03V221.35H542.48Zm-237.988-1.461H541.018V222.811H304.491Z" transform="translate(-303.03 -221.35)" fill="#e0e0e0"/>
                    </g>
                    <g id="Group_2" data-name="Group 2" transform="translate(32.032 73.913)">
                      <rect id="Rectangle_36" data-name="Rectangle 36" width="158.011" height="4.632" fill="#f0f0f0"/>
                    </g>
                    <g id="Group_3" data-name="Group 3" transform="translate(32.032 91.185)">
                      <rect id="Rectangle_37" data-name="Rectangle 37" width="168.898" height="5.056" fill="#f0f0f0"/>
                    </g>
                    <g id="Group_4" data-name="Group 4" transform="translate(32.032 108.663)">
                      <rect id="Rectangle_38" data-name="Rectangle 38" width="168.898" height="5.056" fill="#f0f0f0"/>
                    </g>
                    <g id="Group_5" data-name="Group 5" transform="translate(32.032 48.822)">
                      <rect id="Rectangle_39" data-name="Rectangle 39" width="55.223" height="12.027" fill="#f0f0f0"/>
                    </g>
                    <g id="Group_6" data-name="Group 6" transform="translate(0.731 0.745)">
                      <rect id="Rectangle_40" data-name="Rectangle 40" width="237.988" height="22.066" fill="#e0e0e0"/>
                    </g>
                  </g>
                  <g id="Group_12" data-name="Group 12" transform="translate(220.373 4.029)">
                    <g id="Group_9" data-name="Group 9" transform="translate(0.015)">
                      <g id="Group_8" data-name="Group 8">
                        <path id="Path_2" data-name="Path 2" d="M453.867,239.586c-.307-.292,2.762-3.989,6.853-8.256s7.643-7.5,7.95-7.2-2.762,3.989-6.854,8.256S454.174,239.879,453.867,239.586Z" transform="translate(-453.845 -224.107)" fill="#fff"/>
                      </g>
                    </g>
                    <g id="Group_11" data-name="Group 11">
                      <g id="Group_10" data-name="Group 10">
                        <path id="Path_3" data-name="Path 3" d="M468.66,239.586c-.307.292-3.858-2.937-7.949-7.2s-7.16-7.964-6.854-8.256,3.858,2.937,7.949,7.2S468.967,239.294,468.66,239.586Z" transform="translate(-453.836 -224.107)" fill="#fff"/>
                      </g>
                    </g>
                  </g>
                </g>
                <g id="Group_26" data-name="Group 26" transform="translate(91.595)">
                  <g id="Group_20" data-name="Group 20">
                    <g id="Group_14" data-name="Group 14">
                      <rect id="Rectangle_41" data-name="Rectangle 41" width="237.988" height="137.144" fill="#e6e6e6"/>
                    </g>
                    <g id="Group_15" data-name="Group 15" transform="translate(31.316 73.182)">
                      <rect id="Rectangle_42" data-name="Rectangle 42" width="158.011" height="4.632" fill="#f0f0f0"/>
                    </g>
                    <g id="Group_16" data-name="Group 16" transform="translate(31.316 90.455)">
                      <rect id="Rectangle_43" data-name="Rectangle 43" width="168.898" height="5.056" fill="#f0f0f0"/>
                    </g>
                    <g id="Group_17" data-name="Group 17" transform="translate(31.316 107.932)">
                      <rect id="Rectangle_44" data-name="Rectangle 44" width="168.898" height="5.056" fill="#f0f0f0"/>
                    </g>
                    <g id="Group_18" data-name="Group 18" transform="translate(31.316 48.092)">
                      <rect id="Rectangle_45" data-name="Rectangle 45" width="55.223" height="12.027" fill="#f0f0f0"/>
                    </g>
                    <g id="Group_19" data-name="Group 19">
                      <rect id="Rectangle_46" data-name="Rectangle 46" width="237.988" height="22.066" fill="#e0e0e0"/>
                    </g>
                  </g>
                  <g id="Group_25" data-name="Group 25" transform="translate(218.839 3.182)">
                    <g id="Group_22" data-name="Group 22" transform="translate(0.015)">
                      <g id="Group_21" data-name="Group 21">
                        <path id="Path_4" data-name="Path 4" d="M252.147,51.706c-.307-.292,2.762-3.989,6.853-8.256s7.643-7.5,7.95-7.2-2.762,3.989-6.854,8.256S252.439,52,252.147,51.706Z" transform="translate(-252.126 -36.227)" fill="#fff"/>
                      </g>
                    </g>
                    <g id="Group_24" data-name="Group 24">
                      <g id="Group_23" data-name="Group 23">
                        <path id="Path_5" data-name="Path 5" d="M266.94,51.706c-.307.292-3.858-2.937-7.949-7.2s-7.16-7.964-6.854-8.256,3.858,2.937,7.949,7.2S267.247,51.429,266.94,51.706Z" transform="translate(-252.116 -36.227)" fill="#fff"/>
                      </g>
                    </g>
                  </g>
                </g>
                <g id="Group_33" data-name="Group 33" transform="translate(0 116.159)">
                  <g id="Group_27" data-name="Group 27">
                    <path id="Path_6" data-name="Path 6" d="M279.13,252.145H39.68V113.54H279.13ZM41.141,250.683H277.668V115H41.141Z" transform="translate(-39.68 -113.54)" fill="#e0e0e0"/>
                  </g>
                  <g id="Group_28" data-name="Group 28" transform="translate(32.046 73.913)">
                    <rect id="Rectangle_47" data-name="Rectangle 47" width="158.011" height="4.632" fill="#f0f0f0"/>
                  </g>
                  <g id="Group_29" data-name="Group 29" transform="translate(32.046 91.185)">
                    <rect id="Rectangle_48" data-name="Rectangle 48" width="168.898" height="5.056" fill="#f0f0f0"/>
                  </g>
                  <g id="Group_30" data-name="Group 30" transform="translate(32.046 108.663)">
                    <rect id="Rectangle_49" data-name="Rectangle 49" width="168.898" height="5.056" fill="#f0f0f0"/>
                  </g>
                  <g id="Group_31" data-name="Group 31" transform="translate(32.046 48.822)">
                    <rect id="Rectangle_50" data-name="Rectangle 50" width="55.223" height="12.027" fill="#f0f0f0"/>
                  </g>
                  <g id="Group_32" data-name="Group 32" transform="translate(0.731 0.731)">
                    <rect id="Rectangle_51" data-name="Rectangle 51" width="237.988" height="22.066" fill="#e0e0e0"/>
                  </g>
                </g>
                <g id="Group_34" data-name="Group 34" transform="translate(234.788 286.518)">
                  <rect id="Rectangle_52" data-name="Rectangle 52" width="281.009" height="251.578" fill="#e6e6e6"/>
                </g>
                <g id="Group_40" data-name="Group 40" transform="translate(28.788 207.272)">
                  <g id="Group_35" data-name="Group 35">
                    <rect id="Rectangle_53" data-name="Rectangle 53" width="220.131" height="228.709" fill="#f0f0f0"/>
                  </g>
                  <g id="Group_36" data-name="Group 36">
                    <rect id="Rectangle_54" data-name="Rectangle 54" width="220.131" height="24.915" fill="#e0e0e0"/>
                  </g>
                  <g id="Group_37" data-name="Group 37" transform="translate(8.943 7.365)">
                    <path id="Path_7" data-name="Path 7" d="M74.735,185.767a4.623,4.623,0,1,1-4.618-4.837A4.734,4.734,0,0,1,74.735,185.767Z" transform="translate(-65.5 -180.93)" fill="#fff"/>
                  </g>
                  <g id="Group_38" data-name="Group 38" transform="translate(27.692 7.365)">
                    <path id="Path_8" data-name="Path 8" d="M87.565,185.767a4.623,4.623,0,1,1-4.618-4.837A4.734,4.734,0,0,1,87.565,185.767Z" transform="translate(-78.33 -180.93)" fill="#fff"/>
                  </g>
                  <g id="Group_39" data-name="Group 39" transform="translate(46.44 7.365)">
                    <path id="Path_9" data-name="Path 9" d="M100.4,185.767a4.623,4.623,0,1,1-4.618-4.837A4.734,4.734,0,0,1,100.4,185.767Z" transform="translate(-91.16 -180.93)" fill="#fff"/>
                  </g>
                </g>
                <g id="Group_46" data-name="Group 46" transform="translate(311.843 50.02)">
                  <g id="Group_41" data-name="Group 41">
                    <rect id="Rectangle_55" data-name="Rectangle 55" width="281.009" height="280.074" fill="#f0f0f0"/>
                  </g>
                  <g id="Group_42" data-name="Group 42">
                    <rect id="Rectangle_56" data-name="Rectangle 56" width="281.009" height="32.806" fill="#e0e0e0"/>
                  </g>
                  <g id="Group_43" data-name="Group 43" transform="translate(11.778 9.718)">
                    <path id="Path_10" data-name="Path 10" d="M273.3,81.287a6.085,6.085,0,1,1-6.079-6.357A6.222,6.222,0,0,1,273.3,81.287Z" transform="translate(-261.14 -74.93)" fill="#fff"/>
                  </g>
                  <g id="Group_44" data-name="Group 44" transform="translate(36.306 9.857)">
                    <path id="Path_11" data-name="Path 11" d="M288.454,76.947a6.092,6.092,0,1,1-8.8-.19A6.218,6.218,0,0,1,288.454,76.947Z" transform="translate(-277.925 -75.025)" fill="#fff"/>
                  </g>
                  <g id="Group_45" data-name="Group 45" transform="translate(61.141 9.718)">
                    <path id="Path_12" data-name="Path 12" d="M307.078,81.287A6.085,6.085,0,1,1,301,74.93,6.222,6.222,0,0,1,307.078,81.287Z" transform="translate(-294.92 -74.93)" fill="#fff"/>
                  </g>
                </g>
              </g>
            </g>
            <g id="Group_49" data-name="Group 49" transform="translate(552.382 532.574)">
              <g id="Group_48" data-name="Group 48">
                <path id="Path_13" data-name="Path 13" d="M344.67,379.869c-22.577-15.768-27.692-45.052-26.8-71.356.146-4.4-.336-9.016,1.754-12.874s6.97-6.488,10.9-4.632c3.259,1.534,4.691,5.334,6.5,8.461a25.658,25.658,0,0,0,10.3,9.835c2.791,1.447,6.254,2.338,9.016.818,3.785-2.09,4.238-7.321,4.209-11.69q-.088-12.209-.146-24.433c-.029-4.369-.044-8.826,1.315-12.976s4.355-7.993,8.519-9.162,9.294,1.227,10.171,5.509c.365,1.783,0,3.624.117,5.436s.964,3.814,2.689,4.325,3.493-.731,4.793-2c4.515-4.413,7.57-10.1,10.434-15.738s5.641-11.442,9.732-16.25,9.747-8.622,16-8.972,12.918,3.507,14.511,9.645-2,12.406-5.918,17.389a97.624,97.624,0,0,1-20.3,19.348c-1.374.979-2.864,2.031-3.39,3.653-.95,2.908,1.812,5.8,4.691,6.766,3.259,1.081,6.8.745,10.2,1.154s7.1,1.9,8.388,5.129c1.783,4.472-1.943,9.148-5.626,12.217a83.855,83.855,0,0,1-24.725,14.277c-3.215,1.169-6.591,2.207-9.192,4.472s-4.15,6.181-2.586,9.265,5.582,4.062,8.958,3.434,6.386-2.455,9.586-3.668c6.006-2.265,13.751-1.856,17.609,3.332,2.528,3.4,2.747,8.154,1.476,12.231s-3.872,7.57-6.62,10.8c-9.615,11.3-21.934,20.385-35.875,25.208s-26.859,6.123-40.7,1.052" transform="translate(-317.775 -224.145)" fill="#3e90ed"/>
              </g>
            </g>
            <g id="Group_52" data-name="Group 52" transform="translate(578.295 536.248)">
              <g id="Group_51" data-name="Group 51">
                <g id="Group_50" data-name="Group 50">
                  <path id="Path_14" data-name="Path 14" d="M424.2,226.66c.015.015-.132.146-.424.409-.322.292-.745.672-1.3,1.154-1.14,1.008-2.835,2.5-4.954,4.486a163.11,163.11,0,0,0-16.688,18.018c-3.244,4.048-6.634,8.636-10.171,13.619s-7.263,10.361-10.989,16.147a201.543,201.543,0,0,0-10.784,18.675c-1.681,3.346-3.186,6.839-4.72,10.4s-3.069,7.175-4.632,10.828a401.389,401.389,0,0,0-15.563,42.042,194.849,194.849,0,0,0-7.277,35.846,142.533,142.533,0,0,0-.409,24.681c.234,2.908.453,5.173.658,6.693.088.731.146,1.3.2,1.739a3.08,3.08,0,0,1,.044.6,2.6,2.6,0,0,1-.117-.584c-.073-.424-.161-.994-.278-1.724-.263-1.52-.526-3.77-.8-6.693a136.046,136.046,0,0,1,.161-24.754,192.473,192.473,0,0,1,7.131-36.007A391.1,391.1,0,0,1,358.819,320.1c1.564-3.653,3.113-7.277,4.647-10.843s3.054-7.073,4.749-10.434A195.684,195.684,0,0,1,379.072,280.1c3.741-5.787,7.511-11.15,11.062-16.133s6.985-9.557,10.273-13.59a153.975,153.975,0,0,1,16.922-17.886c2.148-1.944,3.872-3.4,5.056-4.369.57-.468,1.008-.818,1.344-1.1A2.869,2.869,0,0,1,424.2,226.66Z" transform="translate(-335.508 -226.659)" fill="#263238"/>
                </g>
              </g>
            </g>
            <g id="Group_55" data-name="Group 55" transform="translate(604.839 560.288)">
              <g id="Group_54" data-name="Group 54">
                <g id="Group_53" data-name="Group 53">
                  <path id="Path_15" data-name="Path 15" d="M360.055,291.172a8.249,8.249,0,0,1-.424-1.87c-.234-1.213-.5-2.966-.8-5.144-.614-4.355-1.271-10.39-1.958-17.039s-1.417-12.67-2.1-17c-.336-2.163-.628-3.916-.833-5.115a10.408,10.408,0,0,1-.248-1.9,8.487,8.487,0,0,1,.555,1.827c.307,1.184.687,2.923,1.1,5.085.833,4.325,1.651,10.346,2.338,17.01.658,6.576,1.257,12.523,1.724,17.053.219,2.046.409,3.785.555,5.173A8.6,8.6,0,0,1,360.055,291.172Z" transform="translate(-353.672 -243.11)" fill="#263238"/>
                </g>
              </g>
            </g>
            <g id="Group_58" data-name="Group 58" transform="translate(611.236 597.794)">
              <g id="Group_57" data-name="Group 57">
                <g id="Group_56" data-name="Group 56">
                  <path id="Path_16" data-name="Path 16" d="M414.208,268.84a11.99,11.99,0,0,1-2.236.263c-1.447.132-3.522.307-6.094.6-5.144.555-12.231,1.578-19.991,3.04s-14.73,3.113-19.728,4.442c-2.513.643-4.53,1.227-5.918,1.622a13.586,13.586,0,0,1-2.192.541,11.826,11.826,0,0,1,2.1-.848c1.374-.482,3.361-1.154,5.86-1.87,4.983-1.476,11.953-3.2,19.742-4.691a199.534,199.534,0,0,1,20.078-2.806c2.587-.219,4.691-.307,6.138-.351A11.649,11.649,0,0,1,414.208,268.84Z" transform="translate(-358.05 -268.776)" fill="#263238"/>
                </g>
              </g>
            </g>
            <g id="Group_61" data-name="Group 61" transform="translate(558.492 599.056)">
              <g id="Group_60" data-name="Group 60">
                <g id="Group_59" data-name="Group 59">
                  <path id="Path_17" data-name="Path 17" d="M350.223,341.361c-.029.015-.161-.219-.38-.687-.263-.555-.57-1.213-.964-2.031-.833-1.768-1.958-4.355-3.3-7.57-2.7-6.43-6.167-15.446-9.864-25.427s-7.058-19.026-9.63-25.5c-1.257-3.156-2.294-5.743-3.069-7.672-.336-.833-.6-1.52-.818-2.09a3.015,3.015,0,0,1-.234-.745c.029-.015.161.219.38.687.263.555.57,1.213.964,2.031.833,1.768,1.958,4.355,3.3,7.57,2.7,6.43,6.167,15.446,9.864,25.441s7.058,19.012,9.63,25.5c1.257,3.156,2.294,5.743,3.069,7.672.336.833.6,1.534.818,2.09A2.515,2.515,0,0,1,350.223,341.361Z" transform="translate(-321.956 -269.64)" fill="#263238"/>
                </g>
              </g>
            </g>
            <g id="Group_64" data-name="Group 64" transform="translate(586.774 646.707)">
              <g id="Group_63" data-name="Group 63">
                <g id="Group_62" data-name="Group 62">
                  <path id="Path_18" data-name="Path 18" d="M415.939,302.251a3.106,3.106,0,0,1-.745.307c-.585.19-1.3.438-2.163.731-2,.643-4.705,1.52-7.993,2.586-6.751,2.192-16.031,5.319-26.289,8.8s-19.582,6.517-26.377,8.578c-3.4,1.023-6.152,1.827-8.066,2.338-.891.234-1.622.424-2.207.585a3.114,3.114,0,0,1-.789.146,3.1,3.1,0,0,1,.745-.307c.585-.19,1.3-.438,2.163-.731,2-.643,4.705-1.52,7.993-2.587,6.751-2.192,16.031-5.319,26.289-8.8s19.581-6.517,26.377-8.563c3.4-1.023,6.152-1.827,8.066-2.338.891-.234,1.622-.424,2.207-.585A3.783,3.783,0,0,1,415.939,302.251Z" transform="translate(-341.31 -302.248)" fill="#263238"/>
                </g>
              </g>
            </g>
            <g id="Group_66" data-name="Group 66" transform="translate(545.309 261.582)">
              <g id="Group_65" data-name="Group 65">
                <path id="Path_19" data-name="Path 19" d="M398.575,69.358l-7.526,2.689-3.215-9.835C381.9,44.078,362.948,34.375,345.6,40.57s-26.625,26.011-20.677,44.146l3.215,9.835-7.555,2.7a12.013,12.013,0,0,0-7.043,15.022L334.5,176.267a11.29,11.29,0,0,0,14.408,7.467l77.99-27.9A12.082,12.082,0,0,0,434,140.67L413.042,76.679A11.26,11.26,0,0,0,398.575,69.358ZM339.129,79.631c-3.259-9.937,1.827-20.794,11.34-24.2S370.357,57.361,373.6,67.3l3.215,9.835L342.344,89.466Zm43.854,56.786,5.348,16.337a1.324,1.324,0,0,1-.833,1.637l-7.482,2.674a1.224,1.224,0,0,1-1.534-.789l-5.348-16.337a14.624,14.624,0,0,1-13.2-10.229c-2.586-7.906,1.461-16.542,9.046-19.26a14.368,14.368,0,0,1,18.427,9.425A15.611,15.611,0,0,1,382.982,136.417Z" transform="translate(-312.935 -38.7)" fill="#3e90ed"/>
              </g>
            </g>
            <g id="Group_67" data-name="Group 67" transform="translate(560.163 294.749)">
              <path id="Path_20" data-name="Path 20" d="M386.024,61.4c.073.2-13.955,5.451-31.33,11.734S323.173,84.344,323.1,84.154,337.056,78.7,354.43,72.42,385.951,61.212,386.024,61.4Z" transform="translate(-323.1 -61.396)" fill="#263238"/>
            </g>
            <g id="Group_69" data-name="Group 69" transform="translate(581.966 297.443)">
              <g id="Group_68" data-name="Group 68">
                <path id="Path_21" data-name="Path 21" d="M395.712,63.24a1.862,1.862,0,0,1,.175.38c.117.292.248.672.424,1.14.38,1.067.891,2.543,1.564,4.428,1.344,3.916,3.259,9.484,5.611,16.337,2.353,6.927,5.129,15.139,8.227,24.258,1.52,4.574,3.2,9.338,4.793,14.365a21.272,21.272,0,0,1,1.1,8.023,10.849,10.849,0,0,1-1.184,4.048,11.161,11.161,0,0,1-2.762,3.259,25.856,25.856,0,0,1-7.423,3.785c-2.557.921-5.071,1.812-7.54,2.7-4.939,1.768-9.7,3.478-14.248,5.1-9.075,3.229-17.243,6.137-24.126,8.592-6.839,2.411-12.392,4.355-16.294,5.728-1.885.643-3.376,1.154-4.442,1.52-.482.161-.862.278-1.154.38a1.193,1.193,0,0,1-.409.1,1.451,1.451,0,0,1,.38-.175c.292-.117.672-.263,1.14-.453l4.4-1.651c3.887-1.432,9.411-3.463,16.206-5.962,6.868-2.5,15.022-5.451,24.082-8.739,4.53-1.637,9.294-3.361,14.233-5.144q3.7-1.337,7.526-2.718a25.6,25.6,0,0,0,7.2-3.668,10.171,10.171,0,0,0,2.572-3.025,9.765,9.765,0,0,0,1.1-3.756,20.984,20.984,0,0,0-1.052-7.73c-1.578-4.968-3.244-9.776-4.749-14.35-3.039-9.133-5.772-17.375-8.066-24.316-2.25-6.883-4.092-12.48-5.378-16.41-.6-1.9-1.081-3.4-1.432-4.472-.146-.482-.263-.862-.351-1.169A1.069,1.069,0,0,1,395.712,63.24Z" transform="translate(-338.02 -63.24)" fill="#263238"/>
              </g>
            </g>
            <g id="Group_71" data-name="Group 71" transform="translate(567.439 274.46)">
              <g id="Group_70" data-name="Group 70">
                <path id="Path_22" data-name="Path 22" d="M359.148,50.344c-.044.058-.775-.395-2.207-.964a19.464,19.464,0,0,0-6.386-1.286,21.6,21.6,0,0,0-9.411,1.783,20.937,20.937,0,0,0-8.929,7.467,19.757,19.757,0,0,0-3.434,11.091,33.981,33.981,0,0,0,1.491,9.557c.775,2.674,1.564,4.778,2.075,6.254a17.069,17.069,0,0,1,.76,2.309,14.389,14.389,0,0,1-1.038-2.207c-.6-1.447-1.476-3.536-2.309-6.211a33.227,33.227,0,0,1-1.68-9.718,20.139,20.139,0,0,1,3.507-11.515,21.233,21.233,0,0,1,19-9.352,18.352,18.352,0,0,1,6.474,1.549,16.667,16.667,0,0,1,1.593.862A2.543,2.543,0,0,1,359.148,50.344Z" transform="translate(-328.079 -47.512)" fill="#263238"/>
              </g>
            </g>
            <g id="Group_73" data-name="Group 73" transform="translate(590.535 332.644)">
              <g id="Group_72" data-name="Group 72" transform="translate(0 0)">
                <path id="Path_23" data-name="Path 23" d="M352.529,89.157a4.189,4.189,0,0,1,.745-.365,15.575,15.575,0,0,1,2.25-.818,16.276,16.276,0,0,1,3.8-.628,13.1,13.1,0,0,1,5.129.76c3.726,1.315,7.175,5.129,8.87,10.185a14.606,14.606,0,0,1,.073,8.388,19.169,19.169,0,0,1-4.779,7.906l.1-.395c1.943,5.319,4.048,11.121,6.254,17.156l.132.365-.365.117c-1.052.351-2.192.731-3.346,1.125-2.455.818-4.9,1.637-7.277,2.44l-.365.117-.117-.365c-2-6.064-4.194-11.763-5.787-17.229l.321.248a14.6,14.6,0,0,1-7.818-3.1,17.534,17.534,0,0,1-4.91-5.86,13.519,13.519,0,0,1-1.549-6.576,16.008,16.008,0,0,1,6.123-12.07,9.267,9.267,0,0,1,2.513-1.4,26.528,26.528,0,0,0-2.4,1.593,15.573,15.573,0,0,0-4.647,6.4,13.856,13.856,0,0,0,.453,11.807,17.15,17.15,0,0,0,4.778,5.611,13.975,13.975,0,0,0,7.467,2.908l.248.015.073.234c1.607,5.421,3.814,11.106,5.831,17.2l-.482-.234c2.382-.8,4.808-1.607,7.263-2.44,1.14-.38,2.28-.76,3.346-1.125l-.234.482c-2.192-6.035-4.282-11.837-6.211-17.17l-.073-.219.175-.175a18.3,18.3,0,0,0,4.618-7.555,14.131,14.131,0,0,0,0-8.023c-1.593-4.91-4.881-8.636-8.446-9.951a12.555,12.555,0,0,0-4.954-.833,16.743,16.743,0,0,0-3.741.511C353.567,88.733,352.544,89.23,352.529,89.157Z" transform="translate(-343.884 -87.329)" fill="#263238"/>
              </g>
            </g>
            <g id="Group_74" data-name="Group 74" transform="translate(376.404 326.23)">
              <path id="Path_24" data-name="Path 24" d="M374.957,513.119,229,512.447a31.8,31.8,0,0,1-31.652-31.929L198.9,114.607A31.807,31.807,0,0,1,230.843,82.94l145.955.672a31.81,31.81,0,0,1,31.652,31.93L406.9,481.453A31.807,31.807,0,0,1,374.957,513.119Z" transform="translate(-197.35 -82.94)" fill="#455a64"/>
            </g>
            <g id="Group_75" data-name="Group 75" transform="translate(386.107 338.841)">
              <path id="Path_25" data-name="Path 25" d="M373.531,92.257l-28.305-.132a7.023,7.023,0,0,0-6.9,7.146L338.3,104.4a7.023,7.023,0,0,1-6.9,7.146l-55.164-.248a7.03,7.03,0,0,1-6.839-7.219l.029-5.129a7.039,7.039,0,0,0-6.839-7.219l-9.952-.044-24.769-.117A22.274,22.274,0,0,0,205.5,113.738L203.99,470.9a22.261,22.261,0,0,0,22.168,22.358l145.663.672a22.265,22.265,0,0,0,22.373-22.168L395.7,114.6A22.277,22.277,0,0,0,373.531,92.257Z" transform="translate(-203.99 -91.57)" fill="#fff"/>
            </g>
            <g id="Group_76" data-name="Group 76" transform="translate(425.708 659.306)">
              <path id="Path_26" data-name="Path 26" d="M341.419,345.138l-108.312-.5c-1.125,0-2.031-1.227-2.017-2.733l.117-28.335c0-1.505.921-2.718,2.046-2.7l108.312.5c1.125,0,2.031,1.228,2.017,2.733l-.117,28.335C343.464,343.939,342.544,345.152,341.419,345.138Z" transform="translate(-231.09 -310.87)" fill="#3e90ed"/>
            </g>
            <g id="Group_77" data-name="Group 77" transform="translate(411.696 444.324)">
              <rect id="Rectangle_57" data-name="Rectangle 57" width="37.585" height="6.897" transform="translate(0.032 0) rotate(0.265)" fill="#0937e5"/>
              <rect id="Rectangle_58" data-name="Rectangle 58" width="37.585" height="6.897" transform="translate(0.032 0) rotate(0.265)" fill="#0937e5" opacity="0.1"/>
            </g>
            <g id="Group_79" data-name="Group 79" transform="translate(411.18 461.211)">
              <g id="Group_78" data-name="Group 78">
                <path id="Path_27" data-name="Path 27" d="M369.473,200.912a3.509,3.509,0,0,0,.862-.2,2.309,2.309,0,0,0,1.417-1.973c0-2.323-.015-5.714-.015-10.068v-9.309a2.829,2.829,0,0,0-.409-1.914,2.138,2.138,0,0,0-1.724-.891h-2.294c-6.211-.015-13.3-.029-21.1-.044-31.3-.117-74.512-.278-122.224-.453a1.994,1.994,0,0,0-1.607.818,2.778,2.778,0,0,0-.38,1.914c0,1.476-.015,2.966-.015,4.428q-.022,4.428-.044,8.782c0,1.447-.015,2.908-.015,4.34a13.3,13.3,0,0,0,.058,2.06,1.974,1.974,0,0,0,1.14,1.315,2.273,2.273,0,0,0,.906.161H225.1l2.133.015c1.417,0,2.835.015,4.238.015,11.252.058,22.11.117,32.456.175,20.677.132,39.295.234,54.945.336,15.621.117,28.276.219,37.044.292,4.355.044,7.745.088,10.068.117,1.125.015,2,.044,2.616.044.585.015.877.044.877.044s-.307.029-.891.029c-.614,0-1.491.015-2.616.029-2.338,0-5.728.015-10.068.029-8.768-.015-21.423-.029-37.044-.044-15.651-.044-34.268-.1-54.945-.175-10.346-.044-21.2-.088-32.456-.132-1.4,0-2.82-.015-4.238-.015l-2.133-.015h-1.067a2.717,2.717,0,0,1-1.2-.219,2.755,2.755,0,0,1-1.578-1.812,4.132,4.132,0,0,1-.088-1.169v-1.081c0-1.447.015-2.893.015-4.34.015-2.908.029-5.831.029-8.782,0-1.476.015-2.952.015-4.428a11.1,11.1,0,0,1,.044-1.169,2.711,2.711,0,0,1,2.7-2.309c47.712.263,90.922.5,122.224.672,7.818.058,14.891.1,21.116.161.775,0,1.534.015,2.294.015a2.58,2.58,0,0,1,2.046,1.067,3.192,3.192,0,0,1,.468,2.148c0,.687-.015,1.374-.015,2.046-.029,2.66-.044,5.085-.059,7.277-.058,4.355-.1,7.745-.117,10.083a2.436,2.436,0,0,1-1.534,2.031A1.961,1.961,0,0,1,369.473,200.912Z" transform="translate(-221.148 -175.31)" fill="#e0e0e0"/>
              </g>
            </g>
            <g id="Group_80" data-name="Group 80" transform="translate(421.781 470.846)">
              <rect id="Rectangle_59" data-name="Rectangle 59" width="68.74" height="6.444" transform="translate(0.03 0) rotate(0.265)" fill="#3e90ed"/>
              <rect id="Rectangle_60" data-name="Rectangle 60" width="68.74" height="6.444" transform="translate(0.03 0) rotate(0.265)" fill="#3e90ed" opacity="0.2"/>
            </g>
            <g id="Group_81" data-name="Group 81" transform="translate(411.433 507.248)">
              <rect id="Rectangle_61" data-name="Rectangle 61" width="37.585" height="6.897" transform="translate(0.032 0) rotate(0.265)" fill="#0937e5"/>
              <rect id="Rectangle_62" data-name="Rectangle 62" width="37.585" height="6.897" transform="translate(0.032 0) rotate(0.265)" fill="#0937e5" opacity="0.1"/>
            </g>
            <g id="Group_83" data-name="Group 83" transform="translate(410.907 524.134)">
              <g id="Group_82" data-name="Group 82">
                <path id="Path_28" data-name="Path 28" d="M368.6,243.972a7.109,7.109,0,0,0,.862-.161,3.069,3.069,0,0,0,1.856-1.651,3.906,3.906,0,0,0,.248-1.856c0-.716,0-1.491-.015-2.323,0-1.68,0-3.624-.015-5.787v-9.279a3.245,3.245,0,0,0-.424-1.929,2.867,2.867,0,0,0-1.593-1.228,9.748,9.748,0,0,0-2.207-.132c-6.2-.015-13.239-.029-21.043-.044-31.2-.117-74.249-.278-121.8-.453a2.709,2.709,0,0,0-2.674,2.353c-.044,1.388-.029,2.923-.044,4.369q-.022,4.406-.044,8.753c0,1.447-.015,2.893-.015,4.325a10.205,10.205,0,0,0,.088,2.046,2.772,2.772,0,0,0,1.067,1.505,2.843,2.843,0,0,0,1.812.468l2.119.015c1.417,0,2.82.015,4.223.015,11.208.058,22.036.117,32.339.175,20.6.132,39.163.234,54.755.336,15.563.117,28.174.219,36.913.292,4.34.058,7.716.088,10.039.117,1.125.029,1.987.044,2.616.044s.935.029.935.029-.307.029-.891.029c-.614,0-1.476.015-2.616.029-2.323,0-5.7.015-10.039.029-8.739-.015-21.35-.029-36.913-.044-15.592-.044-34.151-.1-54.755-.175-10.3-.044-21.13-.088-32.339-.132-1.4,0-2.806-.015-4.223-.015l-2.119-.015a3.576,3.576,0,0,1-2.236-.6,3.506,3.506,0,0,1-1.374-1.914,9.118,9.118,0,0,1-.117-2.236c0-1.432.015-2.879.015-4.325q.022-4.34.029-8.753c.015-1.491-.015-2.893.044-4.457a3.446,3.446,0,0,1,3.434-3.025c47.551.263,90.6.5,121.8.672,7.789.058,14.832.1,21.028.161a8.985,8.985,0,0,1,2.323.161,3.23,3.23,0,0,1,1.8,1.417,3.519,3.519,0,0,1,.468,2.134c0,.687-.015,1.374-.015,2.031-.029,2.645-.044,5.071-.058,7.248s-.044,4.106-.058,5.787c-.015.833-.015,1.607-.029,2.323a4.011,4.011,0,0,1-.307,1.914,3.057,3.057,0,0,1-1.973,1.666A2.661,2.661,0,0,1,368.6,243.972Z" transform="translate(-220.961 -218.369)" fill="#e0e0e0"/>
              </g>
            </g>
            <g id="Group_84" data-name="Group 84" transform="translate(411.155 572.891)">
              <rect id="Rectangle_63" data-name="Rectangle 63" width="37.585" height="6.897" transform="translate(0.032 0) rotate(0.264)" fill="#0937e5"/>
              <rect id="Rectangle_64" data-name="Rectangle 64" width="37.585" height="6.897" transform="translate(0.032 0) rotate(0.264)" fill="#0937e5" opacity="0.1"/>
            </g>
            <g id="Group_86" data-name="Group 86" transform="translate(410.629 589.747)">
              <g id="Group_85" data-name="Group 85">
                <path id="Path_29" data-name="Path 29" d="M368.405,288.887a7.109,7.109,0,0,0,.862-.161,3.069,3.069,0,0,0,1.856-1.651,3.905,3.905,0,0,0,.248-1.856c0-.716,0-1.491-.015-2.323,0-1.68,0-3.624-.015-5.787V267.83a3.244,3.244,0,0,0-.424-1.929,2.866,2.866,0,0,0-1.593-1.227,9.744,9.744,0,0,0-2.207-.132c-6.2-.015-13.239-.029-21.028-.044-31.2-.117-74.249-.278-121.8-.453a2.7,2.7,0,0,0-2.674,2.353c-.044,1.388-.029,2.923-.044,4.369-.015,2.937-.029,5.86-.044,8.753,0,1.447-.015,2.893-.015,4.325a10.206,10.206,0,0,0,.088,2.046,2.772,2.772,0,0,0,1.067,1.505,2.843,2.843,0,0,0,1.812.468l2.119.015c1.417,0,2.82.015,4.223.015,11.208.058,22.036.117,32.339.175,20.6.132,39.163.234,54.755.336,15.563.117,28.174.219,36.913.292,4.34.059,7.716.088,10.039.117,1.125.015,2,.044,2.616.044s.921.029.921.029-.307.029-.891.029c-.614,0-1.476.015-2.616.029-2.323,0-5.7.015-10.039.029-8.739-.015-21.35-.029-36.913-.044-15.592-.044-34.151-.1-54.755-.175-10.3-.044-21.13-.088-32.339-.132-1.4,0-2.806-.015-4.223-.015l-2.119-.015a3.577,3.577,0,0,1-2.236-.6,3.506,3.506,0,0,1-1.374-1.914,9.2,9.2,0,0,1-.117-2.25c0-1.432.015-2.879.015-4.325.015-2.893.029-5.816.029-8.753.015-1.491-.015-2.893.044-4.457a3.446,3.446,0,0,1,3.434-3.025c47.551.263,90.6.5,121.8.672,7.789.058,14.832.1,21.028.161a8.986,8.986,0,0,1,2.323.161,3.23,3.23,0,0,1,1.8,1.417,3.519,3.519,0,0,1,.468,2.134c0,.687-.015,1.374-.015,2.031-.029,2.645-.044,5.071-.058,7.248s-.044,4.106-.059,5.787c-.015.833-.015,1.607-.029,2.323a4.011,4.011,0,0,1-.307,1.914,3.057,3.057,0,0,1-1.973,1.666A2.113,2.113,0,0,1,368.405,288.887Z" transform="translate(-220.771 -263.269)" fill="#e0e0e0"/>
              </g>
            </g>
            <g id="Group_87" data-name="Group 87" transform="translate(421.518 533.771)">
              <rect id="Rectangle_65" data-name="Rectangle 65" width="68.74" height="6.444" transform="translate(0.03 0) rotate(0.265)" fill="#3e90ed"/>
              <rect id="Rectangle_66" data-name="Rectangle 66" width="68.74" height="6.444" transform="translate(0.03 0) rotate(0.265)" fill="#3e90ed" opacity="0.2"/>
            </g>
            <g id="Group_108" data-name="Group 108" transform="translate(421.763 600.225)">
              <g id="Group_97" data-name="Group 97">
                <g id="Group_88" data-name="Group 88">
                  <path id="Path_30" data-name="Path 30" d="M234.411,273.655a3.016,3.016,0,1,1-3-3.215A3.106,3.106,0,0,1,234.411,273.655Z" transform="translate(-228.39 -270.44)" fill="#3e90ed"/>
                </g>
                <g id="Group_89" data-name="Group 89" transform="translate(9.309 0.044)">
                  <path id="Path_31" data-name="Path 31" d="M240.781,273.685a3.016,3.016,0,1,1-3-3.215A3.106,3.106,0,0,1,240.781,273.685Z" transform="translate(-234.76 -270.47)" fill="#3e90ed"/>
                </g>
                <g id="Group_90" data-name="Group 90" transform="translate(18.632 0.088)">
                  <path id="Path_32" data-name="Path 32" d="M247.161,273.715a3.016,3.016,0,1,1-3-3.215A3.1,3.1,0,0,1,247.161,273.715Z" transform="translate(-241.14 -270.5)" fill="#3e90ed"/>
                </g>
                <g id="Group_91" data-name="Group 91" transform="translate(27.94 0.132)">
                  <path id="Path_33" data-name="Path 33" d="M253.531,273.745a3.016,3.016,0,1,1-3-3.215A3.1,3.1,0,0,1,253.531,273.745Z" transform="translate(-247.51 -270.53)" fill="#3e90ed"/>
                </g>
                <g id="Group_92" data-name="Group 92" transform="translate(37.249 0.161)">
                  <path id="Path_34" data-name="Path 34" d="M259.9,273.765a3.016,3.016,0,1,1-3-3.215A3.1,3.1,0,0,1,259.9,273.765Z" transform="translate(-253.88 -270.55)" fill="#3e90ed"/>
                </g>
                <g id="Group_93" data-name="Group 93" transform="translate(46.572 0.205)">
                  <path id="Path_35" data-name="Path 35" d="M266.281,273.795a3.016,3.016,0,1,1-3-3.215A3.1,3.1,0,0,1,266.281,273.795Z" transform="translate(-260.26 -270.58)" fill="#3e90ed"/>
                </g>
                <g id="Group_94" data-name="Group 94" transform="translate(55.88 0.248)">
                  <path id="Path_36" data-name="Path 36" d="M272.651,273.825a3.016,3.016,0,1,1-3-3.215A3.106,3.106,0,0,1,272.651,273.825Z" transform="translate(-266.63 -270.61)" fill="#3e90ed"/>
                </g>
                <g id="Group_95" data-name="Group 95" transform="translate(65.189 0.292)">
                  <path id="Path_37" data-name="Path 37" d="M279.021,273.855a3.016,3.016,0,1,1-3-3.215A3.1,3.1,0,0,1,279.021,273.855Z" transform="translate(-273 -270.64)" fill="#3e90ed"/>
                </g>
                <g id="Group_96" data-name="Group 96" transform="translate(74.497 0.336)">
                  <path id="Path_38" data-name="Path 38" d="M285.391,273.885a3.016,3.016,0,1,1-3-3.215A3.1,3.1,0,0,1,285.391,273.885Z" transform="translate(-279.37 -270.67)" fill="#3e90ed"/>
                </g>
              </g>
              <g id="Group_107" data-name="Group 107" opacity="0.2">
                <g id="Group_98" data-name="Group 98">
                  <path id="Path_39" data-name="Path 39" d="M234.411,273.655a3.016,3.016,0,1,1-3-3.215A3.106,3.106,0,0,1,234.411,273.655Z" transform="translate(-228.39 -270.44)" fill="#3e90ed"/>
                </g>
                <g id="Group_99" data-name="Group 99" transform="translate(9.309 0.044)">
                  <path id="Path_40" data-name="Path 40" d="M240.781,273.685a3.016,3.016,0,1,1-3-3.215A3.106,3.106,0,0,1,240.781,273.685Z" transform="translate(-234.76 -270.47)" fill="#3e90ed"/>
                </g>
                <g id="Group_100" data-name="Group 100" transform="translate(18.632 0.088)">
                  <path id="Path_41" data-name="Path 41" d="M247.161,273.715a3.016,3.016,0,1,1-3-3.215A3.1,3.1,0,0,1,247.161,273.715Z" transform="translate(-241.14 -270.5)" fill="#3e90ed"/>
                </g>
                <g id="Group_101" data-name="Group 101" transform="translate(27.94 0.132)">
                  <path id="Path_42" data-name="Path 42" d="M253.531,273.745a3.016,3.016,0,1,1-3-3.215A3.1,3.1,0,0,1,253.531,273.745Z" transform="translate(-247.51 -270.53)" fill="#3e90ed"/>
                </g>
                <g id="Group_102" data-name="Group 102" transform="translate(37.249 0.161)">
                  <path id="Path_43" data-name="Path 43" d="M259.9,273.765a3.016,3.016,0,1,1-3-3.215A3.1,3.1,0,0,1,259.9,273.765Z" transform="translate(-253.88 -270.55)" fill="#3e90ed"/>
                </g>
                <g id="Group_103" data-name="Group 103" transform="translate(46.572 0.205)">
                  <path id="Path_44" data-name="Path 44" d="M266.281,273.795a3.016,3.016,0,1,1-3-3.215A3.1,3.1,0,0,1,266.281,273.795Z" transform="translate(-260.26 -270.58)" fill="#3e90ed"/>
                </g>
                <g id="Group_104" data-name="Group 104" transform="translate(55.88 0.248)">
                  <path id="Path_45" data-name="Path 45" d="M272.651,273.825a3.016,3.016,0,1,1-3-3.215A3.106,3.106,0,0,1,272.651,273.825Z" transform="translate(-266.63 -270.61)" fill="#3e90ed"/>
                </g>
                <g id="Group_105" data-name="Group 105" transform="translate(65.189 0.292)">
                  <path id="Path_46" data-name="Path 46" d="M279.021,273.855a3.016,3.016,0,1,1-3-3.215A3.1,3.1,0,0,1,279.021,273.855Z" transform="translate(-273 -270.64)" fill="#3e90ed"/>
                </g>
                <g id="Group_106" data-name="Group 106" transform="translate(74.497 0.336)">
                  <path id="Path_47" data-name="Path 47" d="M285.391,273.885a3.016,3.016,0,1,1-3-3.215A3.1,3.1,0,0,1,285.391,273.885Z" transform="translate(-279.37 -270.67)" fill="#3e90ed"/>
                </g>
              </g>
            </g>
            <g id="Group_109" data-name="Group 109" transform="translate(477.392 381.877)">
              <path id="Path_48" data-name="Path 48" d="M278.122,131.965a5.652,5.652,0,0,0,3.376-5.246,5.323,5.323,0,1,0-10.624-.058,5.658,5.658,0,0,0,3.39,5.29c-8.183,1.227-7.8,10.127-7.8,10.127l19.333.088S286.232,133.178,278.122,131.965Z" transform="translate(-266.458 -121.02)" fill="#0937e6"/>
              <path id="Path_49" data-name="Path 49" d="M278.122,131.965a5.652,5.652,0,0,0,3.376-5.246,5.323,5.323,0,1,0-10.624-.058,5.658,5.658,0,0,0,3.39,5.29c-8.183,1.227-7.8,10.127-7.8,10.127l19.333.088S286.232,133.178,278.122,131.965Z" transform="translate(-266.458 -121.02)" fill="#0937e6" opacity="0.1"/>
            </g>
            <g id="Group_110" data-name="Group 110" transform="translate(451.485 408.537)">
              <rect id="Rectangle_67" data-name="Rectangle 67" width="68.959" height="8.242" transform="translate(0.038 0) rotate(0.265)" fill="#3e90ed"/>
              <rect id="Rectangle_68" data-name="Rectangle 68" width="68.959" height="8.242" transform="translate(0.038 0) rotate(0.265)" fill="#3e90ed" opacity="0.2"/>
            </g>
            <g id="Speech_Bubble" transform="translate(229.342 451.508)">
              <g id="Group_118" data-name="Group 118">
                <g id="Group_114" data-name="Group 114">
                  <g id="Group_113" data-name="Group 113">
                    <path id="Path_50" data-name="Path 50" d="M134.352,168.685a3.56,3.56,0,0,1-.672.073c-.482.029-1.14.088-1.987.146a22.542,22.542,0,0,0-3.2.424c-.628.132-1.315.175-2.031.38s-1.461.409-2.265.628a36.928,36.928,0,0,0-10.77,5.348,38.27,38.27,0,0,0-10.609,11.807,39.573,39.573,0,0,0-3.712,8.49,40.831,40.831,0,0,0-1.622,9.908,40.34,40.34,0,0,0,.088,5.3c.044.891.234,1.783.351,2.689a17.276,17.276,0,0,0,.511,2.7,38.388,38.388,0,0,0,4.092,10.609,37.671,37.671,0,0,0,17.8,16.177,34.724,34.724,0,0,0,12.553,2.82,33.961,33.961,0,0,0,13.108-1.885l1.286-.468.175-.058.161.073c6.284,3.186,12.45,6.327,18.427,9.352l-.555.468c-1.973-6.108-3.872-12.027-5.7-17.711l-.073-.219.161-.161a39.333,39.333,0,0,0,9.674-16.089,40.456,40.456,0,0,0,1.4-17.126,39.411,39.411,0,0,0-13.152-24.7,36.094,36.094,0,0,0-16.7-8.169c-1.081-.19-2.031-.351-2.864-.482-.833-.058-1.534-.1-2.119-.146-.541-.044-.979-.073-1.3-.1a3.472,3.472,0,0,1-.453-.088,1.989,1.989,0,0,1,.438-.015c.321.015.76.015,1.3.044.585.029,1.3.058,2.133.088.848.132,1.812.263,2.893.424a38.618,38.618,0,0,1,7.745,2.323,40.6,40.6,0,0,1,9.206,5.743,39.394,39.394,0,0,1,8.5,10.273,40.021,40.021,0,0,1,4.983,14.715A41.11,41.11,0,0,1,170.2,219.7a39.977,39.977,0,0,1-9.82,16.41l.088-.38c1.841,5.684,3.756,11.6,5.728,17.7l.292.891-.833-.424c-5.977-3.025-12.143-6.152-18.442-9.352l.321.015-1.315.482a34.869,34.869,0,0,1-13.4,1.929,35.581,35.581,0,0,1-12.83-2.893,38.453,38.453,0,0,1-18.135-16.527,38.841,38.841,0,0,1-4.135-10.814,17.815,17.815,0,0,1-.511-2.747c-.117-.921-.307-1.827-.351-2.733a39.994,39.994,0,0,1,5.436-24.024,38.418,38.418,0,0,1,10.828-11.88,36.861,36.861,0,0,1,10.945-5.275c.8-.2,1.578-.409,2.294-.6a20.042,20.042,0,0,1,2.046-.351,19.914,19.914,0,0,1,3.229-.351c.848-.029,1.52-.044,2-.073A3.756,3.756,0,0,1,134.352,168.685Z" transform="translate(-96.713 -168.67)" fill="#3e90ed"/>
                  </g>
                </g>
                <g id="Group_117" data-name="Group 117" transform="translate(23.171 20.53)">
                  <g id="Group_115" data-name="Group 115">
                    <path id="Path_51" data-name="Path 51" d="M135.367,196.325h-2.7l-5.889-8.213V182.72s-4.179-.263-3.682,6.8-.044,5.261-.044,5.261-8.87.029-9.6.8c-.541.555-.774,9.367-.877,14.145a5.165,5.165,0,0,0,3.668,5.2,3.627,3.627,0,0,0,.95.132c2.207,0,13.5-1.8,13.5-1.8h4.662V196.325Z" transform="translate(-112.569 -182.719)" fill="#3e90ed"/>
                  </g>
                  <g id="Group_116" data-name="Group 116" transform="translate(24.244 12.115)">
                    <path id="Path_52" data-name="Path 52" d="M135.444,191.01l-1.666,18.471H129.16V191.39Z" transform="translate(-129.16 -191.01)" fill="#3e90ed"/>
                  </g>
                </g>
              </g>
            </g>
            <g id="Group_132" data-name="Group 132" transform="translate(315.526 847.537)">
              <g id="Group_119" data-name="Group 119">
                <path id="Path_53" data-name="Path 53" d="M178.282,452.335V439.826l-22.4-.146-.19,18.88,1.388.1c6.181.395,31.447.979,35.583-.307C197.293,456.938,178.282,452.335,178.282,452.335Z" transform="translate(-155.69 -439.68)" fill="#3e90ed"/>
              </g>
              <g id="Group_121" data-name="Group 121" transform="translate(0.073 17.141)">
                <g id="Group_120" data-name="Group 120">
                  <path id="Path_54" data-name="Path 54" d="M193.179,451.79c0,.2-8.373.38-18.719.38s-18.719-.175-18.719-.38,8.373-.38,18.719-.38S193.179,451.585,193.179,451.79Z" transform="translate(-155.74 -451.41)" fill="#3e90ed"/>
                </g>
              </g>
              <g id="Group_123" data-name="Group 123" transform="translate(22.909 12.928)">
                <g id="Group_122" data-name="Group 122">
                  <path id="Path_55" data-name="Path 55" d="M171.445,450.811c-.19-.1-.029-.76.453-1.4s1.067-.994,1.213-.848-.161.7-.6,1.3S171.635,450.913,171.445,450.811Z" transform="translate(-171.367 -448.527)" fill="#3e90ed"/>
                </g>
              </g>
              <g id="Group_125" data-name="Group 125" transform="translate(24.327 13.29)">
                <g id="Group_124" data-name="Group 124">
                  <path id="Path_56" data-name="Path 56" d="M172.429,451.515c-.19-.073-.088-.818.351-1.593s1.023-1.257,1.184-1.125-.117.775-.526,1.491S172.619,451.588,172.429,451.515Z" transform="translate(-172.338 -448.775)" fill="#3e90ed"/>
                </g>
              </g>
              <g id="Group_127" data-name="Group 127" transform="translate(0.362 13.072)">
                <g id="Group_126" data-name="Group 126">
                  <path id="Path_57" data-name="Path 57" d="M162.4,453.016c-.088.059-.424-.263-.906-.818a15.376,15.376,0,0,0-1.958-1.973,5.109,5.109,0,0,0-2.426-1.052c-.687-.088-1.125.015-1.169-.1-.044-.088.38-.395,1.184-.438a4.426,4.426,0,0,1,2.864.994,7.966,7.966,0,0,1,1.929,2.25C162.312,452.534,162.488,452.958,162.4,453.016Z" transform="translate(-155.938 -448.625)" fill="#3e90ed"/>
                </g>
              </g>
              <g id="Group_129" data-name="Group 129" transform="translate(20.895 12.77)">
                <g id="Group_128" data-name="Group 128">
                  <path id="Path_58" data-name="Path 58" d="M172.153,448.508c.117.175-.278.614-.921.848s-1.213.161-1.242-.058.424-.453.979-.658S172.036,448.333,172.153,448.508Z" transform="translate(-169.989 -448.419)" fill="#3e90ed"/>
                </g>
              </g>
              <g id="Group_131" data-name="Group 131" transform="translate(20.034 11.281)">
                <g id="Group_130" data-name="Group 130">
                  <path id="Path_59" data-name="Path 59" d="M172.074,447.765c.015.2-.57.395-1.33.395s-1.359-.146-1.344-.365.614-.395,1.33-.395S172.045,447.561,172.074,447.765Z" transform="translate(-169.4 -447.4)" fill="#3e90ed"/>
                </g>
              </g>
            </g>
            <g id="Group_146" data-name="Group 146" transform="translate(370.69 847.537)">
              <g id="Group_133" data-name="Group 133">
                <path id="Path_60" data-name="Path 60" d="M216.032,452.335V439.826l-22.4-.146-.19,18.69,1.388.1c6.181.395,31.447,1.169,35.583-.1C235.043,456.938,216.032,452.335,216.032,452.335Z" transform="translate(-193.44 -439.68)" fill="#3e90ed"/>
              </g>
              <g id="Group_135" data-name="Group 135" transform="translate(0.073 17.17)">
                <g id="Group_134" data-name="Group 134">
                  <path id="Path_61" data-name="Path 61" d="M230.929,451.81c0,.2-8.373.38-18.719.38s-18.719-.175-18.719-.38,8.373-.38,18.719-.38S230.929,451.605,230.929,451.81Z" transform="translate(-193.49 -451.43)" fill="#3e90ed"/>
                </g>
              </g>
              <g id="Group_137" data-name="Group 137" transform="translate(22.909 12.928)">
                <g id="Group_136" data-name="Group 136">
                  <path id="Path_62" data-name="Path 62" d="M209.195,450.811c-.19-.1-.029-.76.453-1.4s1.067-.994,1.213-.848-.161.7-.6,1.3S209.385,450.913,209.195,450.811Z" transform="translate(-209.117 -448.527)" fill="#3e90ed"/>
                </g>
              </g>
              <g id="Group_139" data-name="Group 139" transform="translate(24.327 13.29)">
                <g id="Group_138" data-name="Group 138">
                  <path id="Path_63" data-name="Path 63" d="M210.179,451.515c-.19-.073-.088-.818.351-1.593s1.023-1.257,1.184-1.125-.117.775-.526,1.491S210.383,451.588,210.179,451.515Z" transform="translate(-210.088 -448.775)" fill="#3e90ed"/>
                </g>
              </g>
              <g id="Group_141" data-name="Group 141" transform="translate(0.362 13.072)">
                <g id="Group_140" data-name="Group 140">
                  <path id="Path_64" data-name="Path 64" d="M200.15,453.016c-.088.059-.424-.263-.906-.818a15.373,15.373,0,0,0-1.958-1.973,5.109,5.109,0,0,0-2.426-1.052c-.687-.088-1.125.015-1.169-.1-.044-.088.38-.395,1.184-.438a4.426,4.426,0,0,1,2.864.994,7.967,7.967,0,0,1,1.929,2.25C200.062,452.534,200.238,452.958,200.15,453.016Z" transform="translate(-193.688 -448.625)" fill="#3e90ed"/>
                </g>
              </g>
              <g id="Group_143" data-name="Group 143" transform="translate(20.895 12.77)">
                <g id="Group_142" data-name="Group 142">
                  <path id="Path_65" data-name="Path 65" d="M209.9,448.508c.1.175-.278.614-.921.848s-1.213.161-1.242-.058.424-.453.979-.658S209.786,448.333,209.9,448.508Z" transform="translate(-207.739 -448.419)" fill="#3e90ed"/>
                </g>
              </g>
              <g id="Group_145" data-name="Group 145" transform="translate(20.034 11.281)">
                <g id="Group_144" data-name="Group 144">
                  <path id="Path_66" data-name="Path 66" d="M209.824,447.765c.015.2-.57.395-1.33.395s-1.359-.146-1.344-.365.614-.395,1.33-.395S209.8,447.561,209.824,447.765Z" transform="translate(-207.15 -447.4)" fill="#3e90ed"/>
                </g>
              </g>
            </g>
            <g id="Group_147" data-name="Group 147" transform="translate(266.981 469.468)">
              <path id="Path_67" data-name="Path 67" d="M331.305,200.658c-.585-.6-2.017-.321-2.017-.321a7.814,7.814,0,0,0-.015-2.528c-.263-.833-2.1-.672-2.1-.672a8.458,8.458,0,0,1,.044-2.075.721.721,0,0,0-.424-.731,6.787,6.787,0,0,0-2.747-.5c-1.125-.8,3.434-7.19,5.129-9.235,1.666-2.017,1.388-3.639-.117-3.639-1.023,0-6.357,6.137-7.979,8.2s-5.991,7.789-6.137,3.215-1.987-8.037-3.127-8.622-2.382.789-1.754,2.06a17.036,17.036,0,0,1,1.023,4.5,10.85,10.85,0,0,1-.175,3.7,41.271,41.271,0,0,1-1.973,6.605l-.117-.058s-31.9,30.585-34.195,32.762c-2.075,1.958-43.518-2.323-51.818-3.2a57.633,57.633,0,0,0-8.549-.585c-3.595.161-4.238.672-7.847.716a177.5,177.5,0,0,0-27.078,2.382,22.433,22.433,0,0,0-17.623,15.285c-8.373,26.157-27.341,88.073-30.717,122.852A142.55,142.55,0,0,0,124.15,384.9c-2.353,6.4-1.783,6.605-.994,6.766,2.119.395,4.559-11.091,5.465-8.315s-4.6,13.692-2.367,14.014c2.923.424,5.246-11.647,5.509-12.655.263-.979,1.739-.643,1.447.248-.424,1.286-4.53,14.92-1.68,15.358,1.593.248,1.754-2.645,1.754-2.645s2.908-13.035,4.252-12.786-.088,7.964-.76,10.536c-.672,2.543.278,3.887,1.637,3.244.935-.438,3.171-8.242,3.785-10.8s2.148-9.586,4.209-5.509,5.188,6.444,6.474,6.5a1.436,1.436,0,0,0,.716-2.616,16.13,16.13,0,0,1-2.82-3.653,10.768,10.768,0,0,1-1.4-3.419,38.514,38.514,0,0,1-1.023-7.394l-.234-1.505c3.273-16.206,12.7-63.771,26.26-94.152l5.582,11.486,2.426,8.5-14.876,36.737,63.435-.833-9.455-36.445,11.486-37.994h0c12.436.278,44.38.745,49.743-1.651,6.693-3,41.326-46.645,41.326-46.645h0a82.946,82.946,0,0,0,6.474-5.611C330.5,203.639,332.576,201.974,331.305,200.658Z" transform="translate(-122.47 -180.96)" fill="#ffbe9d"/>
            </g>
            <g id="Group_161" data-name="Group 161" transform="translate(289.456 515.09)">
              <g id="Group_148" data-name="Group 148">
                <path id="Path_68" data-name="Path 68" d="M157.636,291.4c1.841-6.284,11.3-37.351,11.3-37.351s4.647,25.324,3.419,28.379a53.16,53.16,0,0,1-3.989,7.54c-10.726,16.337-9.323,24.506-9.323,24.506l64.794-1.973c.161-9.06-5.2-30.132-6.327-33.493s2.6-14.379,2.6-14.379,7.321-7.438,7.043-11.267c-.57-7.716-1.271-10.2-1.271-10.2l39.426,1.447-1.242-26.757-56.669-5.67c-1.958,5.582-19.815,2.85-19.815,2.85-19.275.628-20.429,4.179-28.466,10.4s-21.262,59.65-21.262,59.65Z" transform="translate(-137.85 -212.18)" fill="#3e90ed"/>
              </g>
              <g id="Group_150" data-name="Group 150" transform="translate(34.984 70.534)">
                <g id="Group_149" data-name="Group 149">
                  <path id="Path_69" data-name="Path 69" d="M184.908,262.8a13.709,13.709,0,0,1-3.419.175c-2.1-.015-5.027-.146-8.227-.468s-6.094-.774-8.154-1.184a14.071,14.071,0,0,1-3.317-.847,16.81,16.81,0,0,1,3.4.321c2.09.263,4.954.628,8.14.95s6.079.541,8.169.687A18.1,18.1,0,0,1,184.908,262.8Z" transform="translate(-161.79 -260.448)" fill="#3e90ed"/>
                </g>
              </g>
              <g id="Group_152" data-name="Group 152" transform="translate(37.424 67.362)">
                <g id="Group_151" data-name="Group 151">
                  <path id="Path_70" data-name="Path 70" d="M188.58,258.3a15.842,15.842,0,0,1-3.536,1.213,64.844,64.844,0,0,1-8.856,1.7,65.729,65.729,0,0,1-9,.438,14.239,14.239,0,0,1-3.726-.351,22.84,22.84,0,0,1,3.726-.19c2.294-.073,5.451-.234,8.914-.658s6.576-.994,8.826-1.461A23.914,23.914,0,0,1,188.58,258.3Z" transform="translate(-163.46 -258.277)" fill="#3e90ed"/>
                </g>
              </g>
              <g id="Group_154" data-name="Group 154" transform="translate(78.932 42.801)">
                <g id="Group_153" data-name="Group 153">
                  <path id="Path_71" data-name="Path 71" d="M197.279,241.47a13.634,13.634,0,0,1-.438,3.3c-.38,2.017-.964,4.793-1.71,7.847s-1.505,5.787-2.1,7.745a13.665,13.665,0,0,1-1.14,3.142,14.877,14.877,0,0,1,.614-3.273c.555-2.28,1.184-4.9,1.885-7.789s1.359-5.495,1.929-7.774A13.557,13.557,0,0,1,197.279,241.47Z" transform="translate(-191.864 -241.47)" fill="#3e90ed"/>
                </g>
              </g>
              <g id="Group_156" data-name="Group 156" transform="translate(0.715 70.073)">
                <g id="Group_155" data-name="Group 155">
                  <path id="Path_72" data-name="Path 72" d="M158.1,265.55c-.058.2-4.53-.833-9.981-2.323s-9.835-2.864-9.776-3.069,4.53.848,9.981,2.323S158.155,265.346,158.1,265.55Z" transform="translate(-138.34 -260.133)" fill="#3e90ed"/>
                </g>
              </g>
              <g id="Group_158" data-name="Group 158" transform="translate(70.672 1.531)">
                <g id="Group_157" data-name="Group 157">
                  <path id="Path_73" data-name="Path 73" d="M204.271,242.34a5.318,5.318,0,0,1-1.68-.015,17.45,17.45,0,0,1-4.457-1.067,18.766,18.766,0,0,1-5.816-3.536,18.153,18.153,0,0,1-4.749-6.854,18.968,18.968,0,0,1-1.315-8.242,12.926,12.926,0,0,1,2-6.517,6.721,6.721,0,0,1,3.7-2.718,4.02,4.02,0,0,1,1.242-.161,1.291,1.291,0,0,1,.438.058c0,.073-.6.044-1.593.38a6.83,6.83,0,0,0-3.346,2.747c-1.987,3.127-2.543,8.841-.424,14.175a18.036,18.036,0,0,0,4.515,6.605,19.308,19.308,0,0,0,5.538,3.566A30.378,30.378,0,0,0,204.271,242.34Z" transform="translate(-186.212 -213.228)" fill="#3e90ed"/>
                </g>
              </g>
              <g id="Group_160" data-name="Group 160" transform="translate(122.442 4.968)">
                <g id="Group_159" data-name="Group 159">
                  <path id="Path_74" data-name="Path 74" d="M221.991,242.512c-.2,0-.365-6.035-.351-13.459s.19-13.473.409-13.473.365,6.035.351,13.473S222.21,242.512,221.991,242.512Z" transform="translate(-221.639 -215.58)" fill="#3e90ed"/>
                </g>
              </g>
            </g>
            <g id="Group_168" data-name="Group 168" transform="translate(298.722 460.21)">
              <g id="Group_162" data-name="Group 162" transform="translate(38.14 5.327)">
                <path id="Path_75" data-name="Path 75" d="M192.078,229.46c.161-3.259.5-6.941.5-6.941s8.066-.891,8.549-9.221,0-27.546,0-27.546l-14.686-7.482L170.29,191.027l2.455,41.647,14.861.95A4.292,4.292,0,0,0,192.078,229.46Z" transform="translate(-170.29 -178.27)" fill="#ffbe9d"/>
              </g>
              <g id="Group_164" data-name="Group 164" transform="translate(58.033 29.029)">
                <g id="Group_163" data-name="Group 163">
                  <path id="Path_76" data-name="Path 76" d="M187.245,199.225c.029,0,.029.161-.132.365a1.123,1.123,0,0,1-.921.409c-.935-.044-1.841-1.081-2.163-2.338a4.211,4.211,0,0,1-.044-1.856,1.592,1.592,0,0,1,.877-1.257.734.734,0,0,1,.95.351c.1.248.029.395,0,.38s-.029-.132-.146-.292a.53.53,0,0,0-.687-.146,1.322,1.322,0,0,0-.6,1.038,3.758,3.758,0,0,0,.073,1.651c.292,1.125,1.081,2.06,1.768,2.148a1.044,1.044,0,0,0,.789-.219C187.157,199.327,187.216,199.21,187.245,199.225Z" transform="translate(-183.903 -194.49)" fill="#eb996e"/>
                </g>
              </g>
              <g id="Group_165" data-name="Group 165">
                <path id="Path_77" data-name="Path 77" d="M218.176,182.947c-1.125-3.829-5.2-5.743-8.914-6.8-5.655-1.607-11.778-2.309-17.287-.278s-12.158,5.611-12.158,11.705c-3.259-.263-5.115,2.587-6.415,6.123a23.424,23.424,0,0,0-1.388,6.722l-.058-.015c-.424,7.979-2.645,18.982-7.818,24.886-2.864,3.259-6.97,5.509-8.636,9.572-1.447,3.536-.7,7.7-2.06,11.267-1.213,3.142-3.887,5.378-5.8,8.11-4.179,5.962-4.457,14.379-1.388,21.028a26.707,26.707,0,0,0,15.9,13.751,37.144,37.144,0,0,0,20.984.19,34.944,34.944,0,0,0,14.058-6.97,23.468,23.468,0,0,0,8.066-13.619c1.023-5.977-.643-12.027-1.87-17.959-3.887-18.763-2.776-19.728,2.134-37.132.117-.307.175-.628.263-.935.058-.234.132-.453.19-.687h-.015a11.009,11.009,0,0,0,.234-2.075,3.983,3.983,0,0,1-4.223-.921,4.387,4.387,0,0,1-.994-4.369,6.332,6.332,0,0,1,3.77-3.551c1.622-.687,3.361-1.023,4.954-1.783,3.376-1.607,5.714-4.939,7.307-8.432C218.1,188.325,218.936,185.534,218.176,182.947Z" transform="translate(-144.19 -174.625)" fill="#263238"/>
              </g>
              <g id="Group_167" data-name="Group 167" transform="translate(59.432 34.114)">
                <g id="Group_166" data-name="Group 166">
                  <path id="Path_78" data-name="Path 78" d="M187.388,197.97a7.575,7.575,0,0,1,.774,1.447c.438.921,1.023,2.221,1.666,3.726l.117.278-.307.029q-.723.066-1.491.132c-1.023.073-1.87.19-2.864.175a.52.52,0,0,1-.38-.336.811.811,0,0,1-.029-.409c.044-.234.088-.395.132-.6l.263-1.038a9.891,9.891,0,0,1,.614-2.017,9.749,9.749,0,0,1-.307,2.09l-.2,1.052c-.073.351-.2.877-.015.848.731-.029,1.768-.146,2.733-.219.511-.044.994-.073,1.491-.117l-.19.307c-.628-1.505-1.154-2.835-1.52-3.785A5.925,5.925,0,0,1,187.388,197.97Z" transform="translate(-184.861 -197.97)" fill="#e8505b"/>
                </g>
              </g>
            </g>
            <g id="Group_186" data-name="Group 186" transform="translate(307.504 615.394)">
              <g id="Group_169" data-name="Group 169" transform="translate(0 0)">
                <path id="Path_79" data-name="Path 79" d="M153.342,282.793l64.794-1.973L246.31,390.915,241.122,517.2h-34.3l4.252-123.6-25.061-76.645L189.874,522.1l-34.618.511L151.6,329.788c-.146-5.363-1.914-17.448-1.257-22.767Z" transform="translate(-150.2 -280.82)" fill="#263238"/>
              </g>
              <g id="Group_171" data-name="Group 171" transform="translate(23.249 33.411)">
                <g id="Group_170" data-name="Group 170">
                  <path id="Path_80" data-name="Path 80" d="M187.314,307.975a12.118,12.118,0,0,1-3.171-.19c-1.944-.234-4.632-.643-7.57-1.227s-5.568-1.257-7.453-1.8a12.671,12.671,0,0,1-3.01-1.052c.058-.2,4.764.935,10.609,2.1S187.343,307.755,187.314,307.975Z" transform="translate(-166.11 -303.684)" fill="#455a64"/>
                </g>
              </g>
              <g id="Group_173" data-name="Group 173" transform="translate(55.924 229.074)">
                <g id="Group_172" data-name="Group 172">
                  <path id="Path_81" data-name="Path 81" d="M223.161,437.96c0,.2-7.76.38-17.346.38s-17.346-.175-17.346-.38,7.76-.38,17.346-.38S223.161,437.741,223.161,437.96Z" transform="translate(-188.47 -437.58)" fill="#455a64"/>
                </g>
              </g>
              <g id="Group_175" data-name="Group 175" transform="translate(5.743 235.562)">
                <g id="Group_174" data-name="Group 174">
                  <path id="Path_82" data-name="Path 82" d="M187.769,442.4c0,.2-7.526.38-16.82.38s-16.82-.175-16.82-.38,7.526-.38,16.82-.38S187.769,442.2,187.769,442.4Z" transform="translate(-154.13 -442.02)" fill="#455a64"/>
                </g>
              </g>
              <g id="Group_177" data-name="Group 177" transform="translate(31.566 35.188)">
                <g id="Group_176" data-name="Group 176">
                  <path id="Path_83" data-name="Path 83" d="M175.146,505.128c-.2,0-1.125-44.818-2.031-100.1S171.639,304.9,171.843,304.9s1.125,44.818,2.031,100.114S175.365,505.128,175.146,505.128Z" transform="translate(-171.801 -304.9)" fill="#455a64"/>
                </g>
              </g>
              <g id="Group_179" data-name="Group 179" transform="translate(62.701 1.973)">
                <g id="Group_178" data-name="Group 178">
                  <path id="Path_84" data-name="Path 84" d="M216.419,509.651a3.754,3.754,0,0,1-.015-.6c.015-.424.015-1.008.029-1.754.044-1.578.117-3.843.19-6.722.2-5.889.5-14.321.862-24.74.8-20.926,1.9-49.757,3.127-81.614.015-.292.029-.585.029-.862l.015.1c-7.686-30.746-14.628-58.54-19.655-78.691-2.47-10.039-4.472-18.164-5.86-23.834-.672-2.791-1.184-4.968-1.549-6.488-.161-.716-.292-1.271-.38-1.7a2.523,2.523,0,0,1-.1-.585,3.241,3.241,0,0,1,.175.57c.117.409.263.964.453,1.666.395,1.52.964,3.682,1.7,6.459,1.447,5.655,3.536,13.766,6.094,23.775,5.085,20.137,12.1,47.916,19.874,78.647l.015.058v.058c-.015.263-.029.57-.029.862-1.3,31.842-2.484,60.688-3.346,81.6-.468,10.419-.833,18.851-1.1,24.725-.146,2.893-.263,5.144-.336,6.722-.044.745-.088,1.315-.1,1.754A3.256,3.256,0,0,1,216.419,509.651Z" transform="translate(-193.108 -282.17)" fill="#455a64"/>
                </g>
              </g>
              <g id="Group_181" data-name="Group 181" transform="translate(59.27 110.539)">
                <g id="Group_180" data-name="Group 180">
                  <path id="Path_85" data-name="Path 85" d="M206.323,356.517c.029.2-3.361.965-7.57,1.681-3.156.541-5.874.921-7.058.979v-.292c.395.1.614.19.6.248s-.234.073-.643.058l-.891-.044.877-.263c1.14-.336,3.829-.891,6.985-1.432C202.845,356.721,206.294,356.312,206.323,356.517Z" transform="translate(-190.76 -356.464)" fill="#455a64"/>
                </g>
              </g>
              <g id="Group_183" data-name="Group 183" transform="translate(60.571 113.537)">
                <g id="Group_182" data-name="Group 182">
                  <path id="Path_86" data-name="Path 86" d="M205.269,359.764c-.029.2-3.069-.029-6.824-.307s-6.8-.541-6.8-.745,3.069-.307,6.854-.015S205.284,359.559,205.269,359.764Z" transform="translate(-191.65 -358.516)" fill="#455a64"/>
                </g>
              </g>
              <g id="Group_184" data-name="Group 184" transform="translate(2.864)">
                <path id="Path_87" data-name="Path 87" d="M152.16,285.116c1.564,2.207,3.8,2.981,6.4,3.4a28.933,28.933,0,0,0,7.862-.146c16.732-1.856,34.443-3.566,50.824-7.555-21.2,1.184-43.591.789-64.794,1.973,0,0-.175,1.461-.219,1.812" transform="translate(-152.16 -280.82)" opacity="0.2"/>
              </g>
              <g id="Group_185" data-name="Group 185" transform="translate(24.711 34.18)" opacity="0.2">
                <path id="Path_88" data-name="Path 88" d="M167.11,304.21l11.953,46.382-.833-44.424Z" transform="translate(-167.11 -304.21)"/>
              </g>
            </g>
          </g>
        </g>
      </g>
    </g>
  </g>
</svg>
