<svg xmlns="http://www.w3.org/2000/svg" width="181.001" height="205.938" viewBox="0 0 181.001 205.938">
  <g id="Group_219" data-name="Group 219" transform="translate(-919 -429.062)">
    <g id="Group_218" data-name="Group 218">
      <g id="Group_217" data-name="Group 217">
        <g id="Group_216" data-name="Group 216">
          <path id="Path_118" data-name="Path 118" d="M292.7,187.338a12.1,12.1,0,0,0-12.067-12.067,12.067,12.067,0,1,0,0-24.133H231.16c7.36-22.082,7.24-29.523,7.24-43.038a18.042,18.042,0,0,0-12.067-17.014A16.723,16.723,0,0,0,220.3,90h-3.62a6.24,6.24,0,0,0-5.792,4.585l-3.378,13.152c-5.068,19.669-21.358,43.4-41.509,43.4V235.6l26.908,8.929a60.15,60.15,0,0,0,19.066,3.137h56.593a12.067,12.067,0,1,0,0-24.133h12.067a12.067,12.067,0,1,0,0-24.133A12.1,12.1,0,0,0,292.7,187.338Z" transform="translate(807.301 375.262)" fill="#fedbab"/>
          <path id="Path_119" data-name="Path 119" d="M349.267,247.671a12.067,12.067,0,0,0,0-24.133h12.067a12.067,12.067,0,1,0,0-24.133,12.067,12.067,0,1,0,0-24.133,12.067,12.067,0,1,0,0-24.133H311.86c7.36-22.082,7.24-29.523,7.24-43.038a18.042,18.042,0,0,0-12.067-17.014A16.722,16.722,0,0,0,301,90V247.671Z" transform="translate(726.6 375.262)" fill="#fec478"/>
          <g id="Group_207" data-name="Group 207" transform="translate(919 429.062)">
            <path id="Path_120" data-name="Path 120" d="M73.233,332.667h-36.2A6.03,6.03,0,0,1,31,326.633v-108.6A6.03,6.03,0,0,1,37.033,212h36.2a18.12,18.12,0,0,1,18.1,18.1v84.467A18.12,18.12,0,0,1,73.233,332.667Z" transform="translate(-31 -126.729)" fill="#5fd9f7"/>
            <circle id="Ellipse_6" data-name="Ellipse 6" cx="6" cy="6" r="6" transform="translate(24 169.938)" fill="#5fd9f7"/>
            <path id="Path_121" data-name="Path 121" d="M298.067,6.033V18.1A6.033,6.033,0,1,1,286,18.1V6.033a6.033,6.033,0,1,1,12.067,0Z" transform="translate(-183.433)" fill="#5fd9f7"/>
            <path id="Path_122" data-name="Path 122" d="M200.836,58.367,192.3,49.836a6.033,6.033,0,1,1,8.532-8.532l8.532,8.532a6.033,6.033,0,0,1-8.532,8.532Z" transform="translate(-126.368 -23.634)" fill="#5fd9f7"/>
          </g>
          <g id="Group_208" data-name="Group 208" transform="translate(1027.6 429.062)">
            <path id="Path_123" data-name="Path 123" d="M362.02,58.367a6.031,6.031,0,0,1,0-8.532l8.532-8.532a6.033,6.033,0,0,1,8.532,8.532l-8.532,8.532A6.031,6.031,0,0,1,362.02,58.367Z" transform="translate(-336.42 -23.634)" fill="#5fd9f7"/>
            <path id="Path_124" data-name="Path 124" d="M307.033,6.033V18.1A5.974,5.974,0,0,1,301,24.133V0A5.974,5.974,0,0,1,307.033,6.033Z" transform="translate(-301)" fill="#5fd9f7"/>
          </g>
        </g>
      </g>
    </g>
  </g>
</svg>
